<?xml version="1.0" encoding="utf-8"?>
<svg viewBox="0 0 186 66" xmlns="http://www.w3.org/2000/svg" xmlns:bx="https://boxy-svg.com">
  <defs>
    <radialGradient id="gradient-1" gradientUnits="userSpaceOnUse" cx="152.286" cy="126.898" r="330" gradientTransform="matrix(0.638467, -1.091841, 1.097297, 0.641658, 52.656119, 215.401816)">
      <stop offset="0" style="stop-color: rgb(0, 170, 237);"/>
      <stop offset="1" style="stop-color: rgb(0, 145, 202);"/>
    </radialGradient>
    <linearGradient id="gradient-0" gradientUnits="userSpaceOnUse" x1="330" y1="0" x2="330" y2="660" gradientTransform="matrix(0.980745, -0.195296, 0.195753, 0.983035, -58.734308, 67.665557)">
      <stop offset="0" style="stop-color: rgb(152, 226, 255);"/>
      <stop offset="1" style="stop-color: rgb(78, 193, 239);"/>
    </linearGradient>
    <bx:grid x="0" y="0" width="207" height="80"/>
  </defs>
  <g transform="matrix(0.341978, 0, 0, 0.341978, -0.561026, 0.472549)">
    <g transform="matrix(0.283555, 0, 0, 0.283555, 3.122751, 1.671054)">
      <title>Logo</title>
      <circle style="fill: url(&quot;#gradient-1&quot;); stroke: url(&quot;#gradient-0&quot;); paint-order: fill; stroke-width: 10.3125px;" cx="329.929" cy="326.968" r="330">
        <title>Main circle</title>
      </circle>
      <g transform="matrix(1, 0, 0, 1, 76.243515, 77.183487)">
        <title>Inner circles</title>
        <circle style="fill: rgb(255, 255, 255); stroke: rgb(152, 226, 255); paint-order: fill; stroke-width: 10.3125px;" cx="254.358" cy="253.337" r="75"/>
        <circle style="fill: rgb(212, 243, 255); stroke: rgb(99, 211, 255); paint-order: fill; stroke-width: 10.3125px;" cx="215.084" cy="54.739" r="57.5"/>
        <circle style="stroke: rgb(78, 193, 239); fill: rgb(179, 233, 255); paint-order: fill; stroke-width: 10.3125px;" cx="63.26" cy="186.66" r="42.5"/>
        <circle style="stroke: rgb(78, 193, 239); fill: rgb(179, 233, 255); paint-order: fill; stroke-width: 10.3125px;" cx="405.584" cy="120.172" r="42.5"/>
        <circle style="stroke: rgb(78, 193, 239); fill: rgb(179, 233, 255); paint-order: fill; stroke-width: 10.3125px;" cx="444.253" cy="318.582" r="42.5"/>
        <circle style="stroke: rgb(78, 193, 239); fill: rgb(179, 233, 255); paint-order: fill; stroke-width: 10.3125px;" cx="101.614" cy="385.13" r="42.5"/>
        <circle style="fill: rgb(212, 243, 255); stroke: rgb(99, 211, 255); paint-order: fill; stroke-width: 10.3125px;" cx="291.529" cy="450.894" r="57.5"/>
      </g>
    </g>
    <g transform="matrix(1, 0, 0, 1, -3.848826, -4.564161)" style="">
      <title>Text</title>
      <path d="M 223.664 26.609 L 223.383 22.186 L 244.583 19.308 Q 244.303 15.447 241.916 12.955 Q 239.529 10.463 235.317 10.463 Q 230.965 10.463 228.122 13.587 Q 225.278 16.711 225.278 22.537 L 225.278 24.082 Q 225.77 29.698 228.964 32.611 Q 232.158 35.524 237.704 35.524 Q 240.652 35.524 243.039 34.542 Q 245.426 33.559 246.83 32.436 Q 247.602 32.927 248.058 33.594 Q 248.515 34.261 248.515 35.103 Q 248.515 36.437 247.005 37.595 Q 245.496 38.754 243.004 39.456 Q 240.512 40.158 237.423 40.158 Q 232.018 40.158 228.051 38.192 Q 224.085 36.226 221.944 32.33 Q 219.803 28.434 219.803 22.818 Q 219.803 18.817 220.961 15.693 Q 222.119 12.569 224.19 10.393 Q 226.261 8.217 229.139 7.058 Q 232.018 5.9 235.387 5.9 Q 239.669 5.9 242.934 7.725 Q 246.198 9.55 248.058 12.815 Q 249.919 16.079 249.919 20.291 Q 249.919 21.835 249.217 22.502 Q 248.515 23.169 247.251 23.31 Z M 269.642 35.595 Q 272.591 35.595 274.521 34.998 Q 276.452 34.401 277.294 33.84 L 277.294 23.661 L 268.589 24.573 Q 264.939 24.854 263.184 26.188 Q 261.429 27.522 261.429 30.049 Q 261.429 32.646 263.5 34.12 Q 265.571 35.595 269.642 35.595 Z M 269.572 5.9 Q 275.679 5.9 279.26 8.638 Q 282.84 11.376 282.84 17.272 L 282.84 33.91 Q 282.84 35.454 282.243 36.261 Q 281.646 37.069 280.453 37.771 Q 278.768 38.683 275.96 39.456 Q 273.152 40.228 269.642 40.228 Q 263.043 40.228 259.428 37.63 Q 255.813 35.033 255.813 30.119 Q 255.813 25.556 258.867 23.134 Q 261.92 20.712 267.326 20.221 L 277.294 19.238 L 277.294 17.272 Q 277.294 13.762 275.188 12.148 Q 273.082 10.533 269.502 10.533 Q 266.624 10.533 263.991 11.376 Q 261.359 12.218 259.323 13.271 Q 258.761 12.78 258.305 12.113 Q 257.849 11.446 257.849 10.744 Q 257.849 8.919 259.884 7.936 Q 261.78 6.953 264.272 6.426 Q 266.764 5.9 269.572 5.9 Z M 315.975 30.61 Q 315.975 35.103 312.676 37.63 Q 309.377 40.158 303.129 40.158 Q 297.794 40.158 294.424 38.508 Q 291.054 36.858 291.054 34.893 Q 291.054 34.05 291.511 33.243 Q 291.967 32.436 292.88 31.944 Q 294.775 33.278 297.302 34.401 Q 299.829 35.524 303.059 35.524 Q 310.359 35.524 310.359 30.61 Q 310.359 28.575 309.131 27.276 Q 307.902 25.977 305.516 25.416 L 299.689 23.871 Q 295.407 22.818 293.441 20.607 Q 291.476 18.396 291.476 15.096 Q 291.476 11.376 294.494 8.638 Q 297.513 5.9 303.69 5.9 Q 306.99 5.9 309.447 6.567 Q 311.904 7.234 313.273 8.322 Q 314.642 9.41 314.642 10.674 Q 314.642 11.586 314.185 12.288 Q 313.729 12.99 312.957 13.341 Q 312.114 12.78 310.816 12.113 Q 309.517 11.446 307.762 10.989 Q 306.007 10.533 303.901 10.533 Q 300.812 10.533 298.917 11.727 Q 297.021 12.92 297.021 15.096 Q 297.021 16.641 298.11 17.799 Q 299.198 18.957 301.584 19.519 L 306.428 20.712 Q 311.202 21.835 313.589 24.257 Q 315.975 26.679 315.975 30.61 Z M 330.015 32.014 Q 328.821 29.768 327.137 25.942 Q 325.452 22.116 323.662 17.378 Q 321.872 12.639 320.257 7.725 Q 320.748 7.023 321.556 6.602 Q 322.363 6.181 323.276 6.181 Q 324.469 6.181 325.241 6.813 Q 326.013 7.444 326.505 8.919 Q 328.611 14.815 330.927 20.642 Q 333.244 26.469 336.052 32.716 L 336.333 32.716 Q 337.807 29.768 339.422 25.345 Q 341.036 20.923 342.51 16.009 Q 343.985 11.095 344.967 6.742 Q 345.459 6.532 346.056 6.356 Q 346.652 6.181 347.354 6.181 Q 348.548 6.181 349.32 6.777 Q 350.092 7.374 350.092 8.568 Q 350.092 9.691 349.46 12.323 Q 348.828 14.956 347.74 18.431 Q 346.652 21.906 345.213 25.802 Q 343.774 29.698 342.124 33.453 Q 340.475 37.209 338.79 40.228 Q 335.561 46.195 332.893 49.389 Q 330.225 52.583 327.979 52.583 Q 326.364 52.583 325.487 51.741 Q 324.609 50.898 324.399 49.775 Q 325.943 48.441 327.874 46.23 Q 329.804 44.019 331.594 41.456 Q 333.384 38.894 334.508 36.577 Q 333.314 36.226 332.296 35.314 Q 331.278 34.401 330.015 32.014 Z" style="line-height: 191.825px; text-wrap-mode: nowrap;"/>
      <path d="M 242.933 99.798 L 242.933 77.755 L 251.568 77.755 L 251.568 100.711 Q 251.568 102.255 250.901 103.273 Q 250.234 104.291 248.76 105.204 Q 247.075 106.327 244.162 107.204 Q 241.249 108.082 237.528 108.082 Q 231.982 108.082 227.876 106.221 Q 223.769 104.361 221.522 100.465 Q 219.276 96.569 219.276 90.602 Q 219.276 84.495 221.558 80.563 Q 223.839 76.632 227.7 74.772 Q 231.561 72.912 236.264 72.912 Q 238.862 72.912 241.003 73.543 Q 243.144 74.175 244.478 75.018 L 244.478 82.389 Q 243.355 81.336 241.529 80.563 Q 239.704 79.791 237.317 79.791 Q 234.72 79.791 232.614 80.879 Q 230.508 81.967 229.315 84.389 Q 228.121 86.811 228.121 90.672 Q 228.121 96.148 230.648 98.675 Q 233.176 101.202 237.458 101.202 Q 239.353 101.202 240.687 100.781 Q 242.021 100.36 242.933 99.798 Z M 251.568 79.51 L 242.933 79.581 L 242.933 61.469 Q 243.425 61.329 244.513 61.118 Q 245.601 60.907 246.794 60.907 Q 249.322 60.907 250.445 61.785 Q 251.568 62.662 251.568 64.909 Z M 260.252 63.996 Q 260.252 61.96 261.691 60.556 Q 263.13 59.152 265.306 59.152 Q 267.553 59.152 268.922 60.556 Q 270.291 61.96 270.291 63.996 Q 270.291 65.962 268.922 67.401 Q 267.553 68.84 265.306 68.84 Q 263.13 68.84 261.691 67.401 Q 260.252 65.962 260.252 63.996 Z M 260.954 88.566 L 269.659 88.566 L 269.659 106.959 Q 269.097 107.169 268.044 107.345 Q 266.991 107.52 265.728 107.52 Q 263.341 107.52 262.147 106.643 Q 260.954 105.765 260.954 103.519 Z M 269.659 92.989 L 260.954 92.989 L 260.954 74.175 Q 261.516 73.965 262.604 73.789 Q 263.692 73.614 264.955 73.614 Q 267.412 73.614 268.536 74.491 Q 269.659 75.369 269.659 77.685 Z M 286.064 82.81 L 286.064 76.071 L 300.174 76.071 Q 300.455 76.562 300.77 77.439 Q 301.086 78.317 301.086 79.44 Q 301.086 81.195 300.279 82.002 Q 299.472 82.81 297.998 82.81 Z M 287.397 72.701 L 287.397 81.757 L 279.114 81.757 L 279.114 72.35 Q 279.114 67.927 280.904 65.154 Q 282.694 62.382 285.888 61.083 Q 289.082 59.784 293.154 59.784 Q 297.717 59.784 300.104 60.978 Q 302.49 62.171 302.49 64.558 Q 302.49 65.611 302.034 66.488 Q 301.578 67.366 300.946 67.927 Q 299.612 67.366 297.962 67.015 Q 296.313 66.664 294.488 66.664 Q 290.767 66.664 289.082 68.068 Q 287.397 69.472 287.397 72.701 Z M 279.114 79.3 L 287.748 79.3 L 287.748 106.959 Q 287.187 107.169 286.134 107.345 Q 285.081 107.52 283.817 107.52 Q 281.43 107.52 280.272 106.643 Q 279.114 105.765 279.114 103.519 Z M 314.073 82.81 L 314.073 76.071 L 328.184 76.071 Q 328.464 76.562 328.78 77.439 Q 329.096 78.317 329.096 79.44 Q 329.096 81.195 328.289 82.002 Q 327.482 82.81 326.007 82.81 Z M 315.407 72.701 L 315.407 81.757 L 307.124 81.757 L 307.124 72.35 Q 307.124 67.927 308.914 65.154 Q 310.704 62.382 313.898 61.083 Q 317.092 59.784 321.164 59.784 Q 325.727 59.784 328.113 60.978 Q 330.5 62.171 330.5 64.558 Q 330.5 65.611 330.044 66.488 Q 329.588 67.366 328.956 67.927 Q 327.622 67.366 325.972 67.015 Q 324.323 66.664 322.497 66.664 Q 318.777 66.664 317.092 68.068 Q 315.407 69.472 315.407 72.701 Z M 307.124 79.3 L 315.758 79.3 L 315.758 106.959 Q 315.197 107.169 314.144 107.345 Q 313.091 107.52 311.827 107.52 Q 309.44 107.52 308.282 106.643 Q 307.124 105.765 307.124 103.519 Z M 344.661 81.827 L 344.661 91.444 L 336.027 91.444 L 336.027 81.125 Q 336.027 79.37 336.869 78.141 Q 337.712 76.913 339.256 75.86 Q 341.362 74.596 344.591 73.754 Q 347.82 72.912 351.541 72.912 Q 358.14 72.912 358.14 76.983 Q 358.14 77.966 357.859 78.773 Q 357.578 79.581 357.157 80.212 Q 356.455 80.072 355.402 79.967 Q 354.349 79.861 353.156 79.861 Q 350.628 79.861 348.417 80.388 Q 346.206 80.914 344.661 81.827 Z M 336.027 88.566 L 344.661 88.987 L 344.661 106.959 Q 344.1 107.169 343.047 107.345 Q 341.994 107.52 340.73 107.52 Q 338.343 107.52 337.185 106.643 Q 336.027 105.765 336.027 103.519 Z M 376.19 101.553 Q 378.296 101.553 379.98 101.132 Q 381.665 100.711 382.437 100.219 L 382.437 92.217 L 375.488 92.919 Q 372.609 93.129 371.1 94.147 Q 369.591 95.165 369.591 97.131 Q 369.591 99.166 371.205 100.36 Q 372.82 101.553 376.19 101.553 Z M 375.839 72.912 Q 382.718 72.912 386.79 75.825 Q 390.861 78.738 390.861 84.986 L 390.861 101.132 Q 390.861 102.817 390.054 103.8 Q 389.247 104.782 387.983 105.555 Q 386.018 106.678 382.999 107.415 Q 379.98 108.152 376.19 108.152 Q 369.17 108.152 365.168 105.449 Q 361.167 102.747 361.167 97.411 Q 361.167 92.708 364.15 90.216 Q 367.134 87.724 372.82 87.162 L 382.367 86.179 L 382.367 84.916 Q 382.367 82.108 380.437 80.844 Q 378.506 79.581 374.996 79.581 Q 372.258 79.581 369.661 80.283 Q 367.064 80.985 365.028 81.967 Q 364.326 81.406 363.764 80.423 Q 363.203 79.44 363.203 78.387 Q 363.203 75.86 366.011 74.667 Q 367.976 73.754 370.609 73.333 Q 373.241 72.912 375.839 72.912 Z M 416.738 79.861 Q 412.526 79.861 409.683 82.599 Q 406.84 85.337 406.84 90.602 Q 406.84 95.797 409.578 98.464 Q 412.316 101.132 416.668 101.132 Q 419.266 101.132 421.056 100.465 Q 422.846 99.798 424.18 99.026 Q 425.233 99.658 425.829 100.535 Q 426.426 101.413 426.426 102.676 Q 426.426 105.063 423.548 106.572 Q 420.67 108.082 415.966 108.082 Q 410.631 108.082 406.594 106.151 Q 402.558 104.221 400.276 100.29 Q 397.995 96.358 397.995 90.602 Q 397.995 84.635 400.417 80.704 Q 402.839 76.773 406.875 74.842 Q 410.912 72.912 415.756 72.912 Q 420.389 72.912 423.197 74.526 Q 426.005 76.141 426.005 78.528 Q 426.005 79.581 425.443 80.493 Q 424.882 81.406 424.109 81.967 Q 422.705 81.125 420.95 80.493 Q 419.195 79.861 416.738 79.861 Z M 433.677 88.566 L 442.311 88.566 L 442.311 96.85 Q 442.311 99.166 443.68 100.149 Q 445.049 101.132 447.576 101.132 Q 448.699 101.132 449.998 100.851 Q 451.297 100.57 452.209 100.149 Q 452.701 100.711 453.122 101.483 Q 453.543 102.255 453.543 103.378 Q 453.543 105.414 451.613 106.748 Q 449.682 108.082 445.611 108.082 Q 440.065 108.082 436.871 105.59 Q 433.677 103.098 433.677 97.482 Z M 438.942 81.406 L 438.942 74.596 L 452.701 74.596 Q 452.982 75.088 453.298 76 Q 453.613 76.913 453.613 77.896 Q 453.613 79.651 452.771 80.528 Q 451.929 81.406 450.595 81.406 Z M 442.311 90.462 L 433.677 90.462 L 433.677 65.19 Q 434.238 64.979 435.326 64.768 Q 436.414 64.558 437.608 64.558 Q 440.065 64.558 441.188 65.435 Q 442.311 66.313 442.311 68.559 Z M 460.14 63.996 Q 460.14 61.96 461.579 60.556 Q 463.018 59.152 465.195 59.152 Q 467.441 59.152 468.81 60.556 Q 470.179 61.96 470.179 63.996 Q 470.179 65.962 468.81 67.401 Q 467.441 68.84 465.195 68.84 Q 463.018 68.84 461.579 67.401 Q 460.14 65.962 460.14 63.996 Z M 460.842 88.566 L 469.547 88.566 L 469.547 106.959 Q 468.985 107.169 467.932 107.345 Q 466.879 107.52 465.616 107.52 Q 463.229 107.52 462.036 106.643 Q 460.842 105.765 460.842 103.519 Z M 469.547 92.989 L 460.842 92.989 L 460.842 74.175 Q 461.404 73.965 462.492 73.789 Q 463.58 73.614 464.844 73.614 Q 467.301 73.614 468.424 74.491 Q 469.547 75.369 469.547 77.685 Z M 511.434 90.462 Q 511.434 95.867 509.33 99.819 Q 507.226 103.771 503.393 105.926 Q 499.561 108.082 494.376 108.082 Q 489.194 108.082 485.326 105.941 Q 481.459 103.8 479.318 99.868 Q 477.177 95.937 477.177 90.462 Q 477.177 85.054 479.353 81.124 Q 481.529 77.194 485.39 75.053 Q 489.251 72.912 494.364 72.912 Q 499.478 72.912 503.313 75.08 Q 507.148 77.248 509.291 81.187 Q 511.434 85.126 511.434 90.462 Z M 494.331 79.791 Q 490.515 79.791 488.303 82.599 Q 486.092 85.407 486.092 90.462 Q 486.092 95.656 488.276 98.429 Q 490.461 101.202 494.376 101.202 Q 498.237 101.202 500.413 98.394 Q 502.589 95.586 502.589 90.462 Q 502.589 85.477 500.396 82.634 Q 498.204 79.791 494.331 79.791 Z M 549.473 85.407 L 549.473 92.217 L 540.839 92.217 L 540.839 85.758 Q 540.839 82.669 539.084 81.23 Q 537.329 79.791 534.38 79.791 Q 532.204 79.791 530.484 80.318 Q 528.764 80.844 527.43 81.546 L 527.43 92.217 L 518.796 92.217 L 518.796 80.985 Q 518.796 79.3 519.498 78.212 Q 520.2 77.124 521.604 76.211 Q 523.71 74.807 527.044 73.859 Q 530.379 72.912 534.45 72.912 Q 541.541 72.912 545.507 76.071 Q 549.473 79.23 549.473 85.407 Z M 518.796 88.777 L 527.43 88.777 L 527.43 106.959 Q 526.869 107.169 525.816 107.345 Q 524.763 107.52 523.499 107.52 Q 521.112 107.52 519.954 106.643 Q 518.796 105.765 518.796 103.519 Z M 540.839 88.777 L 549.473 88.777 L 549.473 106.959 Q 548.982 107.169 547.894 107.345 Q 546.806 107.52 545.612 107.52 Q 543.155 107.52 541.997 106.643 Q 540.839 105.765 540.839 103.519 Z" style="line-height: 191.825px; text-wrap-mode: nowrap;"/>
      <rect style="" x="218.702" y="122.343" width="207.616" height="73.104" rx="14.621" ry="14.621"/>
      <path d="M 241.343 157.9 L 246.255 158.637 L 246.255 173.987 Q 245.948 174.11 245.334 174.264 Q 244.72 174.417 243.983 174.417 Q 242.694 174.417 242.019 173.895 Q 241.343 173.373 241.343 172.207 Z M 246.255 160.97 L 241.343 160.295 L 241.343 134.323 Q 241.65 134.2 242.295 134.047 Q 242.94 133.893 243.615 133.893 Q 244.966 133.893 245.61 134.415 Q 246.255 134.937 246.255 136.103 Z M 255.647 136.779 Q 255.647 135.489 256.568 134.599 Q 257.489 133.709 258.84 133.709 Q 260.252 133.709 261.112 134.599 Q 261.971 135.489 261.971 136.779 Q 261.971 138.068 261.112 138.959 Q 260.252 139.849 258.84 139.849 Q 257.489 139.849 256.568 138.959 Q 255.647 138.068 255.647 136.779 Z M 256.384 157.9 L 261.296 157.9 L 261.296 173.987 Q 260.989 174.11 260.375 174.264 Q 259.761 174.417 259.024 174.417 Q 257.735 174.417 257.059 173.895 Q 256.384 173.373 256.384 172.207 Z M 261.296 160.295 L 256.384 160.295 L 256.384 145.866 Q 256.691 145.743 257.336 145.59 Q 257.98 145.436 258.717 145.436 Q 260.007 145.436 260.651 145.958 Q 261.296 146.48 261.296 147.708 Z M 283.522 144.945 Q 287.329 144.945 290.369 146.572 Q 293.408 148.199 295.158 151.515 Q 296.908 154.83 296.908 159.927 Q 296.908 165.084 295.096 168.4 Q 293.285 171.715 290.092 173.312 Q 286.899 174.908 282.663 174.908 Q 279.654 174.908 277.229 174.171 Q 274.804 173.435 273.269 172.575 Q 271.979 171.715 271.488 170.979 Q 270.997 170.242 270.997 168.952 L 270.997 148.506 L 275.909 148.506 L 275.909 168.952 Q 276.83 169.628 278.61 170.242 Q 280.391 170.856 282.663 170.856 Q 286.838 170.856 289.386 168.216 Q 291.934 165.575 291.934 159.927 Q 291.934 154.216 289.355 151.607 Q 286.777 148.997 282.786 148.997 Q 280.33 148.997 278.426 149.949 Q 276.523 150.901 275.295 152.129 L 274.374 148.138 Q 275.725 147.094 277.996 146.02 Q 280.268 144.945 283.522 144.945 Z M 275.909 149.489 L 270.997 149.489 L 270.997 134.323 Q 271.304 134.2 271.949 134.047 Q 272.593 133.893 273.33 133.893 Q 274.619 133.893 275.264 134.415 Q 275.909 134.937 275.909 136.103 Z M 309.496 151.024 L 309.496 160.725 L 304.584 160.725 L 304.584 151.392 Q 304.584 149.98 305.106 149.151 Q 305.628 148.322 306.856 147.524 Q 308.452 146.48 311.215 145.713 Q 313.978 144.945 317.355 144.945 Q 322.267 144.945 322.267 147.401 Q 322.267 148.015 322.083 148.537 Q 321.899 149.059 321.592 149.427 Q 320.978 149.304 319.996 149.182 Q 319.013 149.059 318.031 149.059 Q 315.206 149.059 313.057 149.642 Q 310.908 150.225 309.496 151.024 Z M 304.584 157.9 L 309.496 158.637 L 309.496 173.987 Q 309.189 174.11 308.575 174.264 Q 307.961 174.417 307.224 174.417 Q 305.935 174.417 305.26 173.895 Q 304.584 173.373 304.584 172.207 Z M 337.86 170.917 Q 340.439 170.917 342.128 170.395 Q 343.816 169.873 344.553 169.382 L 344.553 160.479 L 336.939 161.277 Q 333.747 161.523 332.212 162.69 Q 330.677 163.856 330.677 166.067 Q 330.677 168.338 332.488 169.628 Q 334.299 170.917 337.86 170.917 Z M 337.799 144.945 Q 343.141 144.945 346.272 147.34 Q 349.404 149.734 349.404 154.892 L 349.404 169.444 Q 349.404 170.794 348.882 171.501 Q 348.36 172.207 347.316 172.821 Q 345.842 173.619 343.386 174.294 Q 340.93 174.97 337.86 174.97 Q 332.089 174.97 328.927 172.698 Q 325.765 170.426 325.765 166.128 Q 325.765 162.137 328.436 160.019 Q 331.106 157.9 335.834 157.471 L 344.553 156.611 L 344.553 154.892 Q 344.553 151.822 342.711 150.41 Q 340.869 148.997 337.738 148.997 Q 335.22 148.997 332.918 149.734 Q 330.615 150.471 328.835 151.392 Q 328.343 150.962 327.944 150.379 Q 327.545 149.796 327.545 149.182 Q 327.545 147.585 329.326 146.726 Q 330.984 145.866 333.163 145.406 Q 335.343 144.945 337.799 144.945 Z M 363.282 151.024 L 363.282 160.725 L 358.37 160.725 L 358.37 151.392 Q 358.37 149.98 358.892 149.151 Q 359.414 148.322 360.642 147.524 Q 362.238 146.48 365.001 145.713 Q 367.764 144.945 371.141 144.945 Q 376.053 144.945 376.053 147.401 Q 376.053 148.015 375.869 148.537 Q 375.685 149.059 375.378 149.427 Q 374.764 149.304 373.781 149.182 Q 372.799 149.059 371.816 149.059 Q 368.992 149.059 366.843 149.642 Q 364.694 150.225 363.282 151.024 Z M 358.37 157.9 L 363.282 158.637 L 363.282 173.987 Q 362.975 174.11 362.361 174.264 Q 361.747 174.417 361.01 174.417 Q 359.721 174.417 359.045 173.895 Q 358.37 173.373 358.37 172.207 Z M 388.579 167.786 Q 387.535 165.821 386.061 162.475 Q 384.588 159.128 383.022 154.984 Q 381.456 150.839 380.044 146.541 Q 380.474 145.927 381.18 145.559 Q 381.886 145.191 382.684 145.191 Q 383.728 145.191 384.403 145.743 Q 385.079 146.296 385.509 147.585 Q 387.351 152.743 389.377 157.839 Q 391.403 162.935 393.859 168.4 L 394.105 168.4 Q 395.394 165.821 396.806 161.953 Q 398.218 158.085 399.508 153.787 Q 400.797 149.489 401.657 145.682 Q 402.087 145.498 402.608 145.344 Q 403.13 145.191 403.744 145.191 Q 404.788 145.191 405.464 145.713 Q 406.139 146.234 406.139 147.278 Q 406.139 148.261 405.586 150.563 Q 405.034 152.866 404.082 155.905 Q 403.13 158.944 401.872 162.352 Q 400.613 165.76 399.17 169.045 Q 397.727 172.329 396.254 174.97 Q 393.429 180.189 391.096 182.982 Q 388.763 185.776 386.798 185.776 Q 385.386 185.776 384.618 185.039 Q 383.851 184.302 383.667 183.32 Q 385.017 182.153 386.706 180.219 Q 388.394 178.285 389.96 176.044 Q 391.526 173.803 392.508 171.777 Q 391.464 171.47 390.574 170.672 Q 389.684 169.873 388.579 167.786 Z" style="fill: rgb(255, 255, 255); line-height: 191.825px; text-wrap-mode: nowrap;"/>
    </g>
  </g>
</svg>