<?xml version="1.0" encoding="utf-8"?>
<svg viewBox="0 0 205 70" xmlns="http://www.w3.org/2000/svg" xmlns:bx="https://boxy-svg.com" height="70px">
  <defs>
    <radialGradient id="gradient-1" gradientUnits="userSpaceOnUse" cx="152.286" cy="126.898" r="330" gradientTransform="matrix(0.638467, -1.091841, 1.097297, 0.641658, 52.656119, 215.401816)">
      <stop offset="0" style="stop-color: rgb(0, 170, 237);"/>
      <stop offset="1" style="stop-color: rgb(0, 145, 202);"/>
    </radialGradient>
    <linearGradient id="gradient-0" gradientUnits="userSpaceOnUse" x1="330" y1="0" x2="330" y2="660" gradientTransform="matrix(0.980745, -0.195296, 0.195753, 0.983035, -58.734308, 67.665557)">
      <stop offset="0" style="stop-color: rgb(152, 226, 255);"/>
      <stop offset="1" style="stop-color: rgb(78, 193, 239);"/>
    </linearGradient>
    <bx:grid x="0" y="0" width="190" height="80"/>
  </defs>
  <g transform="matrix(0.341978, 0, 0, 0.341978, -0.561026, 2.22259)">
    <g transform="matrix(0.283555, 0, 0, 0.283555, 3.122751, 1.671054)">
      <title>Logo</title>
      <circle style="fill: url(&quot;#gradient-1&quot;); stroke: url(&quot;#gradient-0&quot;); paint-order: fill; stroke-width: 10.3125px;" cx="329.929" cy="326.968" r="330">
        <title>Main circle</title>
      </circle>
      <g transform="matrix(1, 0, 0, 1, 76.243515, 77.183487)">
        <title>Inner circles</title>
        <circle style="fill: rgb(255, 255, 255); stroke: rgb(152, 226, 255); paint-order: fill; stroke-width: 10.3125px;" cx="254.358" cy="253.337" r="75"/>
        <circle style="fill: rgb(212, 243, 255); stroke: rgb(99, 211, 255); paint-order: fill; stroke-width: 10.3125px;" cx="215.084" cy="54.739" r="57.5"/>
        <circle style="stroke: rgb(78, 193, 239); fill: rgb(179, 233, 255); paint-order: fill; stroke-width: 10.3125px;" cx="63.26" cy="186.66" r="42.5"/>
        <circle style="stroke: rgb(78, 193, 239); fill: rgb(179, 233, 255); paint-order: fill; stroke-width: 10.3125px;" cx="405.584" cy="120.172" r="42.5"/>
        <circle style="stroke: rgb(78, 193, 239); fill: rgb(179, 233, 255); paint-order: fill; stroke-width: 10.3125px;" cx="444.253" cy="318.582" r="42.5"/>
        <circle style="stroke: rgb(78, 193, 239); fill: rgb(179, 233, 255); paint-order: fill; stroke-width: 10.3125px;" cx="101.614" cy="385.13" r="42.5"/>
        <circle style="fill: rgb(212, 243, 255); stroke: rgb(99, 211, 255); paint-order: fill; stroke-width: 10.3125px;" cx="291.529" cy="450.894" r="57.5"/>
      </g>
    </g>
    <g transform="matrix(1, 0, 0, 1, -3.848826, -44.854218)" style="">
      <title>Text</title>
      <path d="M 224.881 62.515 L 224.553 57.355 L 249.287 53.997 Q 248.959 49.493 246.175 46.585 Q 243.39 43.678 238.476 43.678 Q 233.398 43.678 230.081 47.323 Q 226.764 50.967 226.764 57.765 L 226.764 59.567 Q 227.338 66.119 231.064 69.517 Q 234.791 72.916 241.261 72.916 Q 244.7 72.916 247.485 71.77 Q 250.27 70.623 251.908 69.313 Q 252.809 69.886 253.341 70.664 Q 253.873 71.442 253.873 72.425 Q 253.873 73.981 252.112 75.332 Q 250.352 76.684 247.444 77.503 Q 244.537 78.322 240.933 78.322 Q 234.627 78.322 229.999 76.029 Q 225.372 73.735 222.874 69.19 Q 220.376 64.644 220.376 58.092 Q 220.376 53.424 221.727 49.78 Q 223.079 46.135 225.495 43.596 Q 227.911 41.057 231.269 39.706 Q 234.627 38.355 238.558 38.355 Q 243.554 38.355 247.362 40.484 Q 251.171 42.613 253.341 46.422 Q 255.511 50.23 255.511 55.144 Q 255.511 56.946 254.692 57.724 Q 253.873 58.502 252.399 58.666 Z M 278.521 72.998 Q 281.961 72.998 284.213 72.302 Q 286.465 71.606 287.448 70.951 L 287.448 59.075 L 277.292 60.14 Q 273.034 60.468 270.986 62.024 Q 268.939 63.58 268.939 66.528 Q 268.939 69.558 271.355 71.278 Q 273.771 72.998 278.521 72.998 Z M 278.439 38.355 Q 285.564 38.355 289.741 41.549 Q 293.918 44.743 293.918 51.622 L 293.918 71.033 Q 293.918 72.834 293.222 73.776 Q 292.526 74.718 291.134 75.537 Q 289.168 76.602 285.892 77.503 Q 282.616 78.404 278.521 78.404 Q 270.822 78.404 266.605 75.373 Q 262.387 72.343 262.387 66.61 Q 262.387 61.287 265.949 58.461 Q 269.512 55.635 275.818 55.062 L 287.448 53.916 L 287.448 51.622 Q 287.448 47.527 284.991 45.644 Q 282.534 43.76 278.357 43.76 Q 274.999 43.76 271.928 44.743 Q 268.857 45.726 266.482 46.954 Q 265.826 46.381 265.294 45.603 Q 264.762 44.825 264.762 44.006 Q 264.762 41.876 267.137 40.73 Q 269.348 39.583 272.256 38.969 Q 275.163 38.355 278.439 38.355 Z M 332.576 67.183 Q 332.576 72.425 328.727 75.373 Q 324.877 78.322 317.588 78.322 Q 311.364 78.322 307.433 76.397 Q 303.502 74.472 303.502 72.179 Q 303.502 71.196 304.034 70.255 Q 304.566 69.313 305.631 68.739 Q 307.842 70.296 310.791 71.606 Q 313.739 72.916 317.506 72.916 Q 326.024 72.916 326.024 67.183 Q 326.024 64.808 324.591 63.293 Q 323.158 61.778 320.373 61.123 L 313.575 59.321 Q 308.579 58.092 306.286 55.513 Q 303.993 52.933 303.993 49.083 Q 303.993 44.743 307.515 41.549 Q 311.036 38.355 318.244 38.355 Q 322.093 38.355 324.959 39.133 Q 327.826 39.911 329.423 41.18 Q 331.02 42.45 331.02 43.924 Q 331.02 44.988 330.488 45.807 Q 329.955 46.626 329.054 47.036 Q 328.072 46.381 326.556 45.603 Q 325.041 44.825 322.994 44.292 Q 320.946 43.76 318.489 43.76 Q 314.886 43.76 312.674 45.152 Q 310.463 46.545 310.463 49.083 Q 310.463 50.885 311.733 52.237 Q 313.002 53.588 315.787 54.243 L 321.438 55.635 Q 327.007 56.946 329.791 59.771 Q 332.576 62.597 332.576 67.183 Z M 348.956 68.821 Q 347.564 66.201 345.599 61.737 Q 343.633 57.273 341.544 51.745 Q 339.456 46.217 337.572 40.484 Q 338.146 39.665 339.087 39.174 Q 340.029 38.682 341.094 38.682 Q 342.486 38.682 343.387 39.419 Q 344.288 40.156 344.861 41.876 Q 347.318 48.756 350.021 55.554 Q 352.724 62.351 356 69.64 L 356.327 69.64 Q 358.047 66.201 359.931 61.041 Q 361.815 55.881 363.535 50.148 Q 365.255 44.415 366.401 39.337 Q 366.974 39.092 367.671 38.887 Q 368.367 38.682 369.186 38.682 Q 370.578 38.682 371.479 39.378 Q 372.38 40.074 372.38 41.467 Q 372.38 42.777 371.643 45.848 Q 370.906 48.92 369.636 52.974 Q 368.367 57.028 366.688 61.573 Q 365.009 66.119 363.084 70.5 Q 361.16 74.882 359.194 78.404 Q 355.427 85.365 352.314 89.092 Q 349.202 92.818 346.581 92.818 Q 344.698 92.818 343.674 91.835 Q 342.65 90.852 342.404 89.542 Q 344.206 87.986 346.458 85.406 Q 348.711 82.826 350.799 79.837 Q 352.888 76.848 354.198 74.145 Q 352.806 73.735 351.618 72.671 Q 350.431 71.606 348.956 68.821 Z" style="line-height: 191.825px; text-wrap-mode: nowrap; fill: rgb(255, 255, 255);">
        <title>easy</title>
      </path>
      <path d="M 247.344 148.289 L 247.344 122.573 L 257.418 122.573 L 257.418 149.354 C 257.418 150.555 257.159 151.552 256.64 152.343 C 256.121 153.135 255.289 153.886 254.142 154.596 C 252.831 155.469 251.043 156.247 248.778 156.93 C 246.512 157.613 243.932 157.954 241.038 157.954 C 236.725 157.954 232.971 157.23 229.777 155.783 C 226.583 154.336 224.112 152.098 222.365 149.067 C 220.618 146.037 219.744 142.202 219.744 137.561 C 219.744 132.81 220.631 128.906 222.406 125.849 C 224.181 122.791 226.569 120.539 229.572 119.092 C 232.575 117.645 235.906 116.922 239.564 116.922 C 241.584 116.922 243.427 117.168 245.092 117.659 C 246.757 118.15 248.109 118.724 249.146 119.379 L 249.146 127.978 C 248.273 127.159 247.126 126.45 245.706 125.849 C 244.287 125.248 242.649 124.948 240.792 124.948 C 238.772 124.948 236.943 125.371 235.305 126.217 C 233.667 127.064 232.384 128.429 231.456 130.312 C 230.527 132.196 230.063 134.639 230.063 137.642 C 230.063 141.901 231.046 145.014 233.012 146.979 C 234.977 148.944 237.625 149.927 240.956 149.927 C 242.43 149.927 243.686 149.763 244.724 149.436 C 245.761 149.109 246.635 148.726 247.344 148.289 Z M 257.418 124.62 L 247.344 124.702 L 247.344 103.572 C 247.727 103.463 248.341 103.326 249.187 103.163 C 250.034 102.999 250.921 102.917 251.849 102.917 C 253.814 102.917 255.234 103.258 256.108 103.941 C 256.981 104.623 257.418 105.838 257.418 107.585 L 257.418 124.62 Z M 267.549 106.52 C 267.549 104.937 268.109 103.599 269.228 102.507 C 270.347 101.415 271.753 100.869 273.446 100.869 C 275.193 100.869 276.599 101.415 277.664 102.507 C 278.729 103.599 279.261 104.937 279.261 106.52 C 279.261 108.049 278.729 109.374 277.664 110.493 C 276.599 111.612 275.193 112.172 273.446 112.172 C 271.753 112.172 270.347 111.612 269.228 110.493 C 268.109 109.374 267.549 108.049 267.549 106.52 Z M 268.368 135.185 L 278.524 135.185 L 278.524 156.643 C 278.087 156.807 277.459 156.957 276.64 157.094 C 275.821 157.23 274.92 157.298 273.937 157.298 C 272.081 157.298 270.689 156.957 269.76 156.275 C 268.832 155.592 268.368 154.377 268.368 152.63 L 268.368 135.185 Z M 278.524 140.345 L 268.368 140.345 L 268.368 118.396 C 268.805 118.232 269.446 118.082 270.293 117.945 C 271.139 117.809 272.053 117.741 273.036 117.741 C 274.947 117.741 276.34 118.082 277.213 118.764 C 278.087 119.447 278.524 120.689 278.524 122.491 L 278.524 140.345 Z M 297.66 128.47 L 297.66 120.607 L 314.122 120.607 C 314.34 120.99 314.572 121.522 314.818 122.204 C 315.063 122.887 315.186 123.665 315.186 124.538 C 315.186 125.903 314.872 126.9 314.244 127.528 C 313.617 128.156 312.73 128.47 311.583 128.47 L 297.66 128.47 Z M 299.216 116.676 L 299.216 127.241 L 289.552 127.241 L 289.552 116.267 C 289.552 112.827 290.248 110.029 291.64 107.872 C 293.032 105.715 294.97 104.132 297.455 103.122 C 299.939 102.111 302.765 101.606 305.932 101.606 C 309.481 101.606 312.183 102.07 314.04 102.999 C 315.896 103.927 316.824 105.319 316.824 107.176 C 316.824 107.995 316.647 108.745 316.292 109.428 C 315.937 110.111 315.514 110.67 315.022 111.107 C 313.985 110.67 312.825 110.315 311.542 110.042 C 310.259 109.769 308.907 109.633 307.488 109.633 C 304.594 109.633 302.492 110.179 301.181 111.271 C 299.871 112.363 299.216 114.165 299.216 116.676 Z M 289.552 124.375 L 299.625 124.375 L 299.625 156.643 C 299.188 156.807 298.561 156.957 297.742 157.094 C 296.923 157.23 296.022 157.298 295.039 157.298 C 293.182 157.298 291.804 156.957 290.903 156.275 C 290.002 155.592 289.552 154.377 289.552 152.63 L 289.552 124.375 Z M 330.338 128.47 L 330.338 120.607 L 346.8 120.607 C 347.018 120.99 347.25 121.522 347.496 122.204 C 347.741 122.887 347.864 123.665 347.864 124.538 C 347.864 125.903 347.55 126.9 346.922 127.528 C 346.295 128.156 345.408 128.47 344.261 128.47 L 330.338 128.47 Z M 331.894 116.676 L 331.894 127.241 L 322.23 127.241 L 322.23 116.267 C 322.23 112.827 322.926 110.029 324.318 107.872 C 325.711 105.715 327.649 104.132 330.133 103.122 C 332.617 102.111 335.443 101.606 338.61 101.606 C 342.159 101.606 344.861 102.07 346.718 102.999 C 348.574 103.927 349.502 105.319 349.502 107.176 C 349.502 107.995 349.325 108.745 348.97 109.428 C 348.615 110.111 348.192 110.67 347.701 111.107 C 346.663 110.67 345.503 110.315 344.22 110.042 C 342.937 109.769 341.585 109.633 340.166 109.633 C 337.272 109.633 335.17 110.179 333.859 111.271 C 332.549 112.363 331.894 114.165 331.894 116.676 Z M 322.23 124.375 L 332.303 124.375 L 332.303 156.643 C 331.866 156.807 331.239 156.957 330.42 157.094 C 329.601 157.23 328.7 157.298 327.717 157.298 C 325.86 157.298 324.482 156.957 323.581 156.275 C 322.68 155.592 322.23 154.377 322.23 152.63 L 322.23 124.375 Z M 366.028 127.323 L 366.028 138.543 L 355.955 138.543 L 355.955 126.504 C 355.955 125.139 356.282 123.979 356.937 123.023 C 357.592 122.068 358.521 121.181 359.722 120.362 C 361.36 119.379 363.435 118.56 365.946 117.905 C 368.458 117.25 371.161 116.922 374.055 116.922 C 379.187 116.922 381.753 118.505 381.753 121.672 C 381.753 122.437 381.644 123.133 381.426 123.76 C 381.207 124.388 380.934 124.948 380.607 125.439 C 380.061 125.33 379.378 125.235 378.559 125.153 C 377.74 125.071 376.867 125.03 375.938 125.03 C 373.973 125.03 372.13 125.235 370.41 125.644 C 368.69 126.053 367.229 126.613 366.028 127.323 Z M 355.955 135.185 L 366.028 135.677 L 366.028 156.643 C 365.591 156.807 364.964 156.957 364.145 157.094 C 363.326 157.23 362.425 157.298 361.442 157.298 C 359.585 157.298 358.207 156.957 357.306 156.275 C 356.405 155.592 355.955 154.377 355.955 152.63 L 355.955 135.185 Z M 402.808 150.337 C 404.446 150.337 405.92 150.173 407.231 149.846 C 408.542 149.518 409.497 149.163 410.098 148.781 L 410.098 139.444 L 401.989 140.263 C 399.751 140.427 398.045 140.905 396.871 141.696 C 395.697 142.488 395.11 143.648 395.11 145.177 C 395.11 146.76 395.738 148.016 396.994 148.945 C 398.249 149.873 400.187 150.337 402.808 150.337 Z M 402.399 116.922 C 407.75 116.922 412.008 118.055 415.175 120.321 C 418.342 122.586 419.926 126.149 419.926 131.009 L 419.926 149.846 C 419.926 151.156 419.612 152.193 418.984 152.958 C 418.356 153.722 417.551 154.404 416.568 155.005 C 415.039 155.879 413.1 156.603 410.753 157.176 C 408.405 157.749 405.757 158.036 402.808 158.036 C 397.348 158.036 393.062 156.985 389.95 154.882 C 386.838 152.78 385.282 149.654 385.282 145.505 C 385.282 141.847 386.442 139.049 388.763 137.11 C 391.083 135.172 394.454 133.984 398.877 133.547 L 410.016 132.401 L 410.016 130.927 C 410.016 128.743 409.265 127.159 407.763 126.176 C 406.262 125.193 404.146 124.702 401.416 124.702 C 399.287 124.702 397.212 124.975 395.192 125.521 C 393.171 126.067 391.369 126.722 389.786 127.487 C 389.24 127.05 388.749 126.45 388.312 125.685 C 387.875 124.92 387.657 124.129 387.657 123.31 C 387.657 121.345 388.749 119.898 390.933 118.969 C 392.462 118.26 394.25 117.741 396.297 117.413 C 398.345 117.086 400.379 116.922 402.399 116.922 Z M 450.115 125.03 C 446.839 125.03 444.095 126.095 441.884 128.224 C 439.673 130.353 438.567 133.466 438.567 137.561 C 438.567 141.601 439.632 144.658 441.761 146.733 C 443.89 148.808 446.648 149.846 450.033 149.846 C 452.053 149.846 453.759 149.586 455.152 149.067 C 456.544 148.548 457.759 147.989 458.796 147.389 C 459.615 147.88 460.257 148.467 460.721 149.149 C 461.185 149.832 461.417 150.664 461.417 151.647 C 461.417 153.504 460.298 155.019 458.059 156.193 C 455.82 157.367 452.872 157.954 449.214 157.954 C 445.064 157.954 441.419 157.203 438.28 155.701 C 435.141 154.2 432.684 151.92 430.909 148.863 C 429.134 145.805 428.247 142.038 428.247 137.561 C 428.247 132.92 429.189 129.07 431.073 126.013 C 432.957 122.955 435.469 120.675 438.608 119.174 C 441.747 117.673 445.201 116.922 448.968 116.922 C 452.572 116.922 455.466 117.55 457.65 118.805 C 459.834 120.061 460.926 121.617 460.926 123.474 C 460.926 124.293 460.707 125.057 460.27 125.767 C 459.833 126.477 459.315 127.05 458.714 127.487 C 457.622 126.832 456.394 126.258 455.029 125.767 C 453.664 125.276 452.026 125.03 450.115 125.03 Z M 469.875 135.185 L 479.949 135.185 L 479.949 144.85 C 479.949 146.651 480.481 147.934 481.546 148.699 C 482.611 149.464 484.126 149.846 486.091 149.846 C 486.965 149.846 487.907 149.737 488.917 149.518 C 489.927 149.299 490.787 149.026 491.497 148.699 C 491.879 149.136 492.234 149.654 492.562 150.255 C 492.889 150.856 493.053 151.593 493.053 152.466 C 493.053 154.049 492.302 155.36 490.801 156.398 C 489.299 157.435 486.965 157.954 483.798 157.954 C 479.485 157.954 476.086 156.985 473.602 155.046 C 471.117 153.108 469.875 149.955 469.875 145.587 L 469.875 135.185 Z M 476.018 126.832 L 476.018 118.887 L 492.07 118.887 C 492.289 119.27 492.521 119.816 492.766 120.525 C 493.012 121.235 493.135 121.972 493.135 122.737 C 493.135 124.102 492.807 125.125 492.152 125.808 C 491.497 126.491 490.65 126.832 489.613 126.832 L 476.018 126.832 Z M 479.949 137.397 L 469.875 137.397 L 469.875 107.913 C 470.312 107.749 470.953 107.585 471.8 107.421 C 472.646 107.258 473.533 107.176 474.462 107.176 C 476.373 107.176 477.765 107.517 478.639 108.199 C 479.512 108.882 479.949 110.097 479.949 111.844 L 479.949 137.397 Z M 500.749 106.52 C 500.749 104.937 501.309 103.599 502.428 102.507 C 503.547 101.415 504.952 100.869 506.645 100.869 C 508.392 100.869 509.798 101.415 510.863 102.507 C 511.928 103.599 512.46 104.937 512.46 106.52 C 512.46 108.049 511.928 109.374 510.863 110.493 C 509.798 111.612 508.392 112.172 506.645 112.172 C 504.952 112.172 503.547 111.612 502.428 110.493 C 501.309 109.374 500.749 108.049 500.749 106.52 Z M 501.568 135.185 L 511.723 135.185 L 511.723 156.643 C 511.286 156.807 510.658 156.957 509.839 157.094 C 509.02 157.23 508.12 157.298 507.137 157.298 C 505.28 157.298 503.888 156.957 502.96 156.275 C 502.032 155.592 501.568 154.377 501.568 152.63 L 501.568 135.185 Z M 511.723 140.345 L 501.568 140.345 L 501.568 118.396 C 502.005 118.232 502.646 118.082 503.492 117.945 C 504.339 117.809 505.253 117.741 506.236 117.741 C 508.147 117.741 509.539 118.082 510.413 118.764 C 511.286 119.447 511.723 120.689 511.723 122.491 L 511.723 140.345 Z M 560.593 137.397 C 560.593 141.601 559.775 145.24 558.138 148.313 C 556.501 151.387 554.193 153.762 551.212 155.439 C 548.231 157.116 544.724 157.954 540.691 157.954 C 536.661 157.954 533.142 157.121 530.134 155.456 C 527.125 153.791 524.788 151.429 523.123 148.371 C 521.458 145.314 520.625 141.656 520.625 137.397 C 520.625 133.19 521.471 129.559 523.164 126.502 C 524.857 123.446 527.205 121.085 530.208 119.42 C 533.211 117.755 536.701 116.922 540.678 116.922 C 544.655 116.922 548.135 117.765 551.118 119.451 C 554.101 121.138 556.425 123.513 558.092 126.577 C 559.759 129.64 560.593 133.247 560.593 137.397 Z M 540.638 124.948 C 537.67 124.948 535.326 126.04 533.607 128.224 C 531.887 130.408 531.027 133.466 531.027 137.397 C 531.027 141.437 531.876 144.535 533.575 146.692 C 535.274 148.849 537.646 149.927 540.691 149.927 C 543.694 149.927 546.041 148.835 547.734 146.651 C 549.427 144.467 550.273 141.382 550.273 137.397 C 550.273 133.52 549.42 130.476 547.715 128.265 C 546.01 126.054 543.651 124.948 540.638 124.948 Z M 604.969 131.5 L 604.969 139.444 L 594.895 139.444 L 594.895 131.909 C 594.895 129.507 594.213 127.746 592.848 126.627 C 591.483 125.508 589.654 124.948 587.361 124.948 C 585.668 124.948 584.153 125.153 582.815 125.562 C 581.478 125.971 580.29 126.449 579.253 126.995 L 579.253 139.444 L 569.179 139.444 L 569.179 126.34 C 569.179 125.03 569.452 123.952 569.998 123.105 C 570.544 122.259 571.363 121.481 572.455 120.771 C 574.093 119.679 576.209 118.764 578.802 118.027 C 581.395 117.29 584.276 116.922 587.443 116.922 C 592.957 116.922 597.257 118.15 600.342 120.607 C 603.427 123.064 604.969 126.695 604.969 131.5 Z M 569.179 135.431 L 579.253 135.431 L 579.253 156.643 C 578.816 156.807 578.188 156.957 577.369 157.094 C 576.55 157.23 575.649 157.298 574.666 157.298 C 572.81 157.298 571.431 156.957 570.53 156.275 C 569.629 155.592 569.179 154.377 569.179 152.63 L 569.179 135.431 Z M 594.895 135.431 L 604.969 135.431 L 604.969 156.643 C 604.587 156.807 603.973 156.957 603.126 157.094 C 602.28 157.23 601.393 157.298 600.465 157.298 C 598.554 157.298 597.148 156.957 596.247 156.275 C 595.346 155.592 594.895 154.377 594.895 152.63 L 594.895 135.431 Z" style="line-height: 191.825px; text-wrap-mode: nowrap; fill: rgb(255, 255, 255);">
        <title>diffraction</title>
      </path>
    </g>
    <g transform="matrix(0.960002, 0, 0, 0.960002, 19.868977, -0.275211)">
      <title>Label</title>
      <rect style="fill: rgb(255, 255, 255);" x="204.319" y="133.328" width="207.616" height="73.104" rx="14.621" ry="14.621"/>
      <path d="M 224.692 170.73 L 229.864 171.506 L 229.864 187.67 C 229.649 187.756 229.325 187.854 228.895 187.962 C 228.464 188.069 227.989 188.123 227.472 188.123 C 226.567 188.123 225.878 187.939 225.404 187.573 C 224.929 187.206 224.692 186.615 224.692 185.795 L 224.692 170.73 Z M 229.864 173.963 L 224.692 173.252 L 224.692 145.903 C 224.908 145.816 225.242 145.719 225.694 145.612 C 226.147 145.505 226.611 145.45 227.084 145.45 C 228.033 145.45 228.734 145.633 229.185 145.999 C 229.638 146.366 229.864 146.959 229.864 147.777 L 229.864 173.963 Z M 239.754 148.489 C 239.754 147.583 240.078 146.819 240.724 146.193 C 241.371 145.569 242.168 145.256 243.117 145.256 C 244.108 145.256 244.906 145.569 245.509 146.193 C 246.113 146.819 246.414 147.583 246.414 148.489 C 246.414 149.394 246.113 150.159 245.509 150.784 C 244.906 151.41 244.108 151.722 243.117 151.722 C 242.168 151.722 241.371 151.41 240.724 150.784 C 240.078 150.159 239.754 149.394 239.754 148.489 Z M 240.531 170.73 L 245.703 170.73 L 245.703 187.67 C 245.487 187.756 245.164 187.854 244.733 187.962 C 244.303 188.069 243.828 188.123 243.311 188.123 C 242.406 188.123 241.716 187.939 241.241 187.573 C 240.768 187.206 240.531 186.615 240.531 185.795 L 240.531 170.73 Z M 245.703 173.252 L 240.531 173.252 L 240.531 158.058 C 240.746 157.971 241.08 157.874 241.533 157.767 C 241.985 157.66 242.47 157.605 242.987 157.605 C 243.893 157.605 244.572 157.788 245.024 158.155 C 245.477 158.521 245.703 159.136 245.703 159.997 L 245.703 173.252 Z M 269.108 157.088 C 271.78 157.088 274.183 157.66 276.318 158.801 C 278.451 159.944 280.132 161.679 281.361 164.006 C 282.59 166.333 283.203 169.286 283.203 172.864 C 283.203 176.485 282.567 179.459 281.295 181.787 C 280.024 184.114 278.268 185.839 276.026 186.959 C 273.784 188.079 271.177 188.64 268.203 188.64 C 266.091 188.64 264.184 188.382 262.481 187.864 C 260.778 187.348 259.388 186.787 258.311 186.183 C 257.405 185.58 256.78 185.019 256.436 184.502 C 256.091 183.985 255.918 183.273 255.918 182.368 L 255.918 160.838 L 261.091 160.838 L 261.091 182.368 C 261.737 182.843 262.685 183.296 263.935 183.726 C 265.185 184.158 266.608 184.373 268.203 184.373 C 271.134 184.373 273.493 183.446 275.283 181.593 C 277.072 179.739 277.966 176.83 277.966 172.864 C 277.966 168.855 277.06 165.935 275.25 164.103 C 273.44 162.271 271.135 161.355 268.333 161.355 C 266.609 161.355 265.078 161.69 263.741 162.357 C 262.405 163.026 261.307 163.791 260.444 164.653 L 259.475 160.45 C 260.423 159.717 261.694 158.974 263.289 158.22 C 264.884 157.466 266.824 157.088 269.108 157.088 Z M 261.091 161.873 L 255.918 161.873 L 255.918 145.903 C 256.134 145.816 256.468 145.719 256.921 145.612 C 257.373 145.505 257.858 145.45 258.375 145.45 C 259.28 145.45 259.959 145.633 260.412 145.999 C 260.865 146.366 261.091 146.959 261.091 147.777 L 261.091 161.873 Z M 296.459 163.489 L 296.459 173.705 L 291.286 173.705 L 291.286 163.877 C 291.286 162.886 291.47 162.099 291.836 161.517 C 292.203 160.936 292.817 160.364 293.679 159.804 C 294.799 159.071 296.329 158.436 298.269 157.897 C 300.209 157.357 302.364 157.088 304.735 157.088 C 308.183 157.088 309.907 157.95 309.907 159.674 C 309.907 160.106 309.843 160.504 309.713 160.87 C 309.584 161.237 309.412 161.549 309.196 161.807 C 308.766 161.721 308.205 161.636 307.516 161.549 C 306.826 161.463 306.136 161.42 305.447 161.42 C 303.464 161.42 301.718 161.625 300.209 162.034 C 298.7 162.444 297.45 162.929 296.459 163.489 Z M 291.286 170.73 L 296.459 171.506 L 296.459 187.67 C 296.243 187.756 295.92 187.854 295.489 187.962 C 295.058 188.069 294.584 188.123 294.066 188.123 C 293.162 188.123 292.472 187.939 291.998 187.573 C 291.523 187.206 291.286 186.615 291.286 185.795 L 291.286 170.73 Z M 326.327 184.437 C 328.137 184.437 329.636 184.254 330.821 183.887 C 332.006 183.521 332.858 183.166 333.375 182.821 L 333.375 173.446 L 325.357 174.286 C 323.116 174.459 321.457 174.955 320.38 175.774 C 319.302 176.593 318.763 177.778 318.763 179.33 C 318.763 180.924 319.399 182.174 320.67 183.08 C 321.941 183.985 323.827 184.437 326.327 184.437 Z M 326.263 157.088 C 330.013 157.088 332.987 157.929 335.185 159.61 C 337.384 161.29 338.483 163.942 338.483 167.562 L 338.483 182.886 C 338.483 183.834 338.3 184.556 337.933 185.052 C 337.567 185.548 337.017 186.011 336.284 186.442 C 335.249 187.002 333.87 187.519 332.146 187.993 C 330.422 188.468 328.483 188.705 326.327 188.705 C 322.276 188.705 319.14 187.908 316.92 186.312 C 314.701 184.718 313.591 182.412 313.591 179.394 C 313.591 176.593 314.528 174.448 316.403 172.961 C 318.278 171.474 320.874 170.579 324.194 170.278 L 333.375 169.372 L 333.375 167.562 C 333.375 165.408 332.728 163.835 331.435 162.843 C 330.142 161.851 328.396 161.355 326.199 161.355 C 324.431 161.355 322.739 161.614 321.123 162.131 C 319.507 162.649 318.073 163.23 316.823 163.877 C 316.478 163.576 316.165 163.22 315.885 162.81 C 315.605 162.401 315.465 161.981 315.465 161.549 C 315.465 160.429 316.091 159.567 317.34 158.963 C 318.504 158.36 319.851 157.897 321.381 157.573 C 322.911 157.25 324.539 157.088 326.263 157.088 Z M 353.097 163.489 L 353.097 173.705 L 347.925 173.705 L 347.925 163.877 C 347.925 162.886 348.108 162.099 348.474 161.517 C 348.841 160.936 349.455 160.364 350.317 159.804 C 351.438 159.071 352.968 158.436 354.907 157.897 C 356.847 157.357 359.002 157.088 361.373 157.088 C 364.821 157.088 366.545 157.95 366.545 159.674 C 366.545 160.106 366.481 160.504 366.352 160.87 C 366.222 161.237 366.05 161.549 365.835 161.807 C 365.404 161.721 364.843 161.636 364.153 161.549 C 363.463 161.463 362.773 161.42 362.084 161.42 C 360.101 161.42 358.356 161.625 356.847 162.034 C 355.338 162.444 354.088 162.929 353.097 163.489 Z M 347.925 170.73 L 353.097 171.506 L 353.097 187.67 C 352.881 187.756 352.558 187.854 352.127 187.962 C 351.697 188.069 351.222 188.123 350.705 188.123 C 349.8 188.123 349.11 187.939 348.635 187.573 C 348.162 187.206 347.925 186.615 347.925 185.795 L 347.925 170.73 Z M 379.736 181.14 C 379.003 179.761 378.119 177.897 377.084 175.547 C 376.05 173.198 374.983 170.569 373.884 167.659 C 372.784 164.75 371.739 161.786 370.748 158.768 C 371.05 158.338 371.448 157.993 371.944 157.734 C 372.44 157.476 372.968 157.347 373.528 157.347 C 374.261 157.347 374.864 157.541 375.338 157.928 C 375.813 158.317 376.201 158.963 376.503 159.868 C 377.796 163.489 379.153 167.088 380.576 170.666 C 381.998 174.244 383.572 177.95 385.296 181.787 L 385.555 181.787 C 386.459 179.976 387.408 177.713 388.399 174.998 C 389.39 172.283 390.338 169.417 391.244 166.399 C 392.149 163.382 392.904 160.536 393.507 157.864 C 393.809 157.735 394.143 157.616 394.508 157.508 C 394.875 157.401 395.274 157.347 395.705 157.347 C 396.438 157.347 397.041 157.53 397.516 157.897 C 397.99 158.263 398.227 158.812 398.227 159.545 C 398.227 160.235 398.033 161.388 397.644 163.004 C 397.257 164.621 396.729 166.496 396.061 168.629 C 395.392 170.762 394.617 173.025 393.733 175.418 C 392.85 177.81 391.901 180.16 390.888 182.466 C 389.875 184.772 388.852 186.852 387.818 188.705 C 385.835 192.369 384.023 195.181 382.386 197.142 C 380.749 199.104 379.24 200.084 377.86 200.084 C 376.869 200.084 376.104 199.826 375.564 199.308 C 375.026 198.791 374.693 198.187 374.563 197.498 C 375.511 196.678 376.577 195.591 377.763 194.232 C 378.948 192.875 380.09 191.409 381.19 189.836 C 382.289 188.263 383.183 186.765 383.873 185.343 C 383.14 185.128 382.461 184.739 381.836 184.179 C 381.212 183.619 380.512 182.606 379.736 181.14 Z" style="line-height: 191.825px; text-wrap-mode: nowrap;">
        <title>library</title>
      </path>
    </g>
  </g>
</svg>