<?xml version="1.0" encoding="utf-8"?>
<svg viewBox="0 0 1320 220" width="1240.5" height="190" xmlns="http://www.w3.org/2000/svg">
  <defs>
    <radialGradient id="gradient-1" gradientUnits="userSpaceOnUse" cx="152.286" cy="126.898" r="330" gradientTransform="matrix(0.638467, -1.091841, 1.097297, 0.641658, 52.727183, 218.434182)">
      <stop offset="0" style="stop-color: rgb(0, 170, 237);"/>
      <stop offset="1" style="stop-color: rgb(0, 145, 202);"/>
    </radialGradient>
    <linearGradient id="gradient-0" gradientUnits="userSpaceOnUse" x1="330" y1="0" x2="330" y2="660" gradientTransform="matrix(0.980745, -0.195296, 0.195753, 0.983035, -58.663244, 70.697931)">
      <stop offset="0" style="stop-color: rgb(152, 226, 255);"/>
      <stop offset="1" style="stop-color: rgb(78, 193, 239);"/>
    </linearGradient>
  </defs>
  <g transform="matrix(0.276515, 0, 0, 0.276515, 34.035957, 18.750038)">
    <g>
      <circle style="fill: url(#gradient-1); stroke: url(#gradient-0); stroke-width: 20px;" cx="330" cy="330" r="330"/>
      <g transform="matrix(1, 0, 0, 1, 76.243515, 77.183487)">
        <circle style="fill: rgb(255, 255, 255); stroke: rgb(152, 226, 255); stroke-width: 20px;" cx="254.358" cy="253.337" r="75"/>
        <circle style="fill: rgb(212, 243, 255); stroke: rgb(99, 211, 255); stroke-width: 20px;" cx="215.084" cy="54.739" r="57.5"/>
        <circle style="stroke: rgb(78, 193, 239); fill: rgb(179, 233, 255); stroke-width: 20px;" cx="63.26" cy="186.66" r="42.5"/>
        <circle style="stroke: rgb(78, 193, 239); fill: rgb(179, 233, 255); stroke-width: 20px;" cx="405.584" cy="120.172" r="42.5"/>
        <circle style="stroke: rgb(78, 193, 239); fill: rgb(179, 233, 255); stroke-width: 20px;" cx="444.253" cy="318.582" r="42.5"/>
        <circle style="stroke: rgb(78, 193, 239); fill: rgb(179, 233, 255); stroke-width: 20px;" cx="101.614" cy="385.13" r="42.5"/>
        <circle style="fill: rgb(212, 243, 255); stroke: rgb(99, 211, 255); stroke-width: 20px;" cx="291.529" cy="450.894" r="57.5"/>
      </g>
    </g>
  </g>
  <path d="M 328.12 133.817 C 329.06 133.817 329.867 134.207 330.54 134.987 C 331.213 135.767 331.55 136.677 331.55 137.717 C 331.55 140.004 329.783 142.237 326.25 144.417 C 318.763 148.89 310.86 151.127 302.54 151.127 C 290.993 151.127 281.893 147.644 275.24 140.677 C 268.58 133.71 265.25 124.144 265.25 111.977 C 265.25 104.177 266.733 97.287 269.7 91.307 C 272.667 85.327 276.827 80.697 282.18 77.417 C 287.533 74.144 293.697 72.507 300.67 72.507 C 310.443 72.507 318.163 75.654 323.83 81.947 C 329.497 88.234 332.33 96.89 332.33 107.917 C 332.33 109.79 331.917 111.167 331.09 112.047 C 330.257 112.934 328.903 113.377 327.03 113.377 L 275.08 113.377 C 275.393 122.944 277.89 130.224 282.57 135.217 C 287.25 140.21 293.853 142.707 302.38 142.707 C 306.853 142.707 310.597 142.107 313.61 140.907 C 316.63 139.714 319.857 138.13 323.29 136.157 C 325.577 134.597 327.187 133.817 328.12 133.817 Z M 300.67 80.307 C 293.39 80.307 287.563 82.594 283.19 87.167 C 278.823 91.747 276.223 98.144 275.39 106.357 L 323.6 106.357 C 323.393 98.037 321.313 91.614 317.36 87.087 C 313.407 82.567 307.843 80.307 300.67 80.307 Z M 382.096 72.507 C 391.249 72.507 398.089 74.897 402.616 79.677 C 407.136 84.464 409.396 91.694 409.396 101.367 L 409.396 145.827 C 409.396 147.28 408.979 148.45 408.146 149.337 C 407.319 150.217 406.176 150.657 404.716 150.657 C 403.263 150.657 402.119 150.217 401.286 149.337 C 400.453 148.45 400.036 147.28 400.036 145.827 L 400.036 136.467 C 397.856 141.147 394.686 144.76 390.526 147.307 C 386.366 149.854 381.579 151.127 376.166 151.127 C 371.279 151.127 366.809 150.14 362.756 148.167 C 358.696 146.187 355.496 143.43 353.156 139.897 C 350.816 136.364 349.646 132.464 349.646 128.197 C 349.646 122.584 351.103 118.217 354.016 115.097 C 356.929 111.977 361.766 109.74 368.526 108.387 C 375.286 107.034 384.699 106.357 396.766 106.357 L 400.036 106.357 L 400.036 100.587 C 400.036 93.72 398.633 88.7 395.826 85.527 C 393.019 82.36 388.599 80.777 382.566 80.777 C 374.873 80.777 367.539 82.804 360.566 86.857 C 360.259 87.064 359.456 87.61 358.156 88.497 C 356.856 89.377 355.736 89.817 354.796 89.817 C 353.756 89.817 352.899 89.427 352.226 88.647 C 351.546 87.867 351.206 86.907 351.206 85.767 C 351.206 83.48 353.026 81.244 356.666 79.057 C 360.306 76.977 364.363 75.364 368.836 74.217 C 373.309 73.077 377.729 72.507 382.096 72.507 Z M 376.946 142.857 C 383.706 142.857 389.246 140.57 393.566 135.997 C 397.879 131.424 400.036 125.6 400.036 118.527 L 400.036 113.377 L 397.076 113.377 C 387.089 113.377 379.446 113.794 374.146 114.627 C 368.839 115.46 365.093 116.89 362.906 118.917 C 360.726 120.944 359.636 123.88 359.636 127.727 C 359.636 132.094 361.299 135.707 364.626 138.567 C 367.953 141.427 372.059 142.857 376.946 142.857 Z M 458.692 151.127 C 454.325 151.127 450.035 150.53 445.822 149.337 C 441.609 148.137 437.892 146.497 434.672 144.417 C 432.692 143.07 431.312 141.9 430.532 140.907 C 429.752 139.92 429.362 138.804 429.362 137.557 C 429.362 136.517 429.702 135.634 430.382 134.907 C 431.055 134.18 431.862 133.817 432.802 133.817 C 433.735 133.817 435.345 134.597 437.632 136.157 C 440.652 138.13 443.745 139.74 446.912 140.987 C 450.085 142.234 454.065 142.857 458.852 142.857 C 464.985 142.857 469.769 141.74 473.202 139.507 C 476.635 137.274 478.352 134.077 478.352 129.917 C 478.352 127.417 477.729 125.36 476.482 123.747 C 475.229 122.14 473.149 120.737 470.242 119.537 C 467.329 118.344 463.169 117.174 457.762 116.027 C 448.502 113.947 441.922 111.27 438.022 107.997 C 434.122 104.717 432.172 100.324 432.172 94.817 C 432.172 88.157 434.772 82.774 439.972 78.667 C 445.172 74.56 451.932 72.507 460.252 72.507 C 464.312 72.507 468.185 73.027 471.872 74.067 C 475.565 75.107 478.765 76.614 481.472 78.587 C 485.112 81.087 486.932 83.53 486.932 85.917 C 486.932 86.957 486.592 87.867 485.912 88.647 C 485.239 89.427 484.435 89.817 483.502 89.817 C 482.462 89.817 480.849 88.987 478.662 87.327 C 475.855 85.347 473.072 83.76 470.312 82.567 C 467.559 81.374 464.049 80.777 459.782 80.777 C 454.375 80.777 450.062 81.997 446.842 84.437 C 443.615 86.884 442.002 90.187 442.002 94.347 C 442.002 96.74 442.549 98.717 443.642 100.277 C 444.735 101.837 446.605 103.214 449.252 104.407 C 451.905 105.6 455.729 106.77 460.722 107.917 C 467.895 109.584 473.409 111.35 477.262 113.217 C 481.109 115.09 483.862 117.327 485.522 119.927 C 487.189 122.527 488.022 125.857 488.022 129.917 C 488.022 136.257 485.345 141.377 479.992 145.277 C 474.632 149.177 467.532 151.127 458.692 151.127 Z M 562.75 75.627 C 563.577 73.754 564.927 72.817 566.8 72.817 C 567.947 72.817 568.987 73.234 569.92 74.067 C 570.86 74.9 571.33 75.887 571.33 77.027 C 571.33 77.754 571.173 78.43 570.86 79.057 L 526.71 175.937 C 525.877 177.704 524.523 178.587 522.65 178.587 C 521.51 178.587 520.497 178.224 519.61 177.497 C 518.73 176.764 518.29 175.827 518.29 174.687 C 518.29 174.06 518.443 173.437 518.75 172.817 L 529.83 148.637 L 497.85 79.057 C 497.537 78.43 497.38 77.807 497.38 77.187 C 497.38 75.94 497.927 74.874 499.02 73.987 C 500.113 73.1 501.283 72.657 502.53 72.657 C 504.503 72.657 505.857 73.594 506.59 75.467 L 534.67 138.497 L 562.75 75.627 Z" style="white-space: pre; fill: rgb(68, 68, 68);"/>
  <path d="M 647.294 39.277 C 649.687 39.277 651.614 39.954 653.074 41.307 C 654.527 42.66 655.254 44.48 655.254 46.767 L 655.254 143.177 C 655.254 145.564 654.551 147.434 653.144 148.787 C 651.744 150.14 649.847 150.817 647.454 150.817 C 645.061 150.817 643.164 150.14 641.764 148.787 C 640.357 147.434 639.654 145.564 639.654 143.177 L 639.654 136.937 C 637.367 141.51 634.041 145.02 629.674 147.467 C 625.301 149.907 620.254 151.127 614.534 151.127 C 607.987 151.127 602.137 149.464 596.984 146.137 C 591.837 142.81 587.834 138.13 584.974 132.097 C 582.114 126.064 580.684 119.147 580.684 111.347 C 580.684 103.447 582.114 96.53 584.974 90.597 C 587.834 84.67 591.814 80.097 596.914 76.877 C 602.007 73.65 607.881 72.037 614.534 72.037 C 620.254 72.037 625.274 73.26 629.594 75.707 C 633.907 78.147 637.207 81.604 639.494 86.077 L 639.494 46.457 C 639.494 44.27 640.197 42.527 641.604 41.227 C 643.011 39.927 644.907 39.277 647.294 39.277 Z M 618.284 138.647 C 625.044 138.647 630.294 136.307 634.034 131.627 C 637.781 126.947 639.654 120.29 639.654 111.657 C 639.654 103.03 637.807 96.377 634.114 91.697 C 630.421 87.017 625.144 84.677 618.284 84.677 C 611.417 84.677 606.087 86.99 602.294 91.617 C 598.494 96.244 596.594 102.82 596.594 111.347 C 596.594 119.874 598.521 126.557 602.374 131.397 C 606.221 136.23 611.524 138.647 618.284 138.647 Z M 685.21 150.817 C 682.917 150.817 681.017 150.194 679.51 148.947 C 678.003 147.7 677.25 145.827 677.25 143.327 L 677.25 79.997 C 677.25 77.497 678.003 75.597 679.51 74.297 C 681.017 72.997 682.917 72.347 685.21 72.347 C 687.497 72.347 689.367 72.997 690.82 74.297 C 692.28 75.597 693.01 77.497 693.01 79.997 L 693.01 143.327 C 693.01 145.827 692.28 147.7 690.82 148.947 C 689.367 150.194 687.497 150.817 685.21 150.817 Z M 685.21 57.057 C 682.19 57.057 679.797 56.227 678.03 54.567 C 676.263 52.9 675.38 50.717 675.38 48.017 C 675.38 45.31 676.263 43.15 678.03 41.537 C 679.797 39.924 682.19 39.117 685.21 39.117 C 688.117 39.117 690.48 39.924 692.3 41.537 C 694.12 43.15 695.03 45.31 695.03 48.017 C 695.03 50.717 694.147 52.9 692.38 54.567 C 690.613 56.227 688.223 57.057 685.21 57.057 Z M 750.882 52.067 C 745.682 52.487 741.835 54.127 739.342 56.987 C 736.842 59.847 735.592 64.03 735.592 69.537 L 735.592 73.907 L 751.042 73.907 C 753.222 73.907 754.912 74.454 756.112 75.547 C 757.305 76.64 757.902 78.124 757.902 79.997 C 757.902 81.864 757.305 83.344 756.112 84.437 C 754.912 85.53 753.222 86.077 751.042 86.077 L 735.592 86.077 L 735.592 143.177 C 735.592 145.67 734.839 147.567 733.332 148.867 C 731.825 150.167 729.929 150.817 727.642 150.817 C 725.349 150.817 723.475 150.167 722.022 148.867 C 720.569 147.567 719.842 145.67 719.842 143.177 L 719.842 86.077 L 710.482 86.077 C 708.295 86.077 706.605 85.53 705.412 84.437 C 704.212 83.344 703.612 81.864 703.612 79.997 C 703.612 78.124 704.212 76.64 705.412 75.547 C 706.605 74.454 708.295 73.907 710.482 73.907 L 719.842 73.907 L 719.842 71.877 C 719.842 62.31 722.285 54.797 727.172 49.337 C 732.059 43.877 738.975 40.837 747.922 40.217 L 751.972 39.897 C 755.299 39.69 757.719 40.057 759.232 40.997 C 760.739 41.93 761.492 43.437 761.492 45.517 C 761.492 49.157 759.309 51.237 754.942 51.757 L 750.882 52.067 Z M 803.61 52.067 C 798.41 52.487 794.563 54.127 792.07 56.987 C 789.57 59.847 788.32 64.03 788.32 69.537 L 788.32 73.907 L 803.77 73.907 C 805.95 73.907 807.64 74.454 808.84 75.547 C 810.033 76.64 810.63 78.124 810.63 79.997 C 810.63 81.864 810.033 83.344 808.84 84.437 C 807.64 85.53 805.95 86.077 803.77 86.077 L 788.32 86.077 L 788.32 143.177 C 788.32 145.67 787.567 147.567 786.06 148.867 C 784.553 150.167 782.657 150.817 780.37 150.817 C 778.077 150.817 776.203 150.167 774.75 148.867 C 773.297 147.567 772.57 145.67 772.57 143.177 L 772.57 86.077 L 763.21 86.077 C 761.023 86.077 759.333 85.53 758.14 84.437 C 756.94 83.344 756.34 81.864 756.34 79.997 C 756.34 78.124 756.94 76.64 758.14 75.547 C 759.333 74.454 761.023 73.907 763.21 73.907 L 772.57 73.907 L 772.57 71.877 C 772.57 62.31 775.013 54.797 779.9 49.337 C 784.787 43.877 791.703 40.837 800.65 40.217 L 804.7 39.897 C 808.027 39.69 810.447 40.057 811.96 40.997 C 813.467 41.93 814.22 43.437 814.22 45.517 C 814.22 49.157 812.037 51.237 807.67 51.757 L 803.61 52.067 Z M 861.022 72.347 C 866.009 72.034 868.502 74.167 868.502 78.747 C 868.502 81.034 867.932 82.75 866.792 83.897 C 865.645 85.037 863.669 85.71 860.862 85.917 L 856.182 86.387 C 849.629 87.014 844.765 89.304 841.592 93.257 C 838.425 97.204 836.842 101.987 836.842 107.607 L 836.842 143.327 C 836.842 145.827 836.112 147.7 834.652 148.947 C 833.199 150.194 831.329 150.817 829.042 150.817 C 826.749 150.817 824.849 150.194 823.342 148.947 C 821.835 147.7 821.082 145.827 821.082 143.327 L 821.082 79.837 C 821.082 77.444 821.835 75.597 823.342 74.297 C 824.849 72.997 826.749 72.347 829.042 72.347 C 831.122 72.347 832.862 72.997 834.262 74.297 C 835.669 75.597 836.372 77.39 836.372 79.677 L 836.372 87.167 C 838.452 82.594 841.469 79.11 845.422 76.717 C 849.369 74.324 853.839 72.92 858.832 72.507 L 861.022 72.347 Z M 909.69 72.037 C 919.777 72.037 927.29 74.584 932.23 79.677 C 937.17 84.777 939.64 92.527 939.64 102.927 L 939.64 143.327 C 939.64 145.72 938.963 147.567 937.61 148.867 C 936.263 150.167 934.393 150.817 932 150.817 C 929.713 150.817 927.893 150.14 926.54 148.787 C 925.187 147.434 924.51 145.614 924.51 143.327 L 924.51 137.557 C 922.537 141.924 919.6 145.277 915.7 147.617 C 911.8 149.957 907.25 151.127 902.05 151.127 C 897.057 151.127 892.48 150.114 888.32 148.087 C 884.16 146.06 880.91 143.227 878.57 139.587 C 876.23 135.947 875.06 131.89 875.06 127.417 C 875.06 121.904 876.49 117.56 879.35 114.387 C 882.21 111.22 886.94 108.96 893.54 107.607 C 900.147 106.254 909.223 105.577 920.77 105.577 L 924.35 105.577 L 924.35 101.057 C 924.35 95.23 923.157 91.017 920.77 88.417 C 918.377 85.817 914.527 84.517 909.22 84.517 C 905.58 84.517 902.15 84.984 898.93 85.917 C 895.703 86.857 892.167 88.21 888.32 89.977 C 885.513 91.537 883.537 92.317 882.39 92.317 C 880.83 92.317 879.557 91.744 878.57 90.597 C 877.583 89.457 877.09 88.004 877.09 86.237 C 877.09 84.677 877.53 83.297 878.41 82.097 C 879.297 80.904 880.727 79.734 882.7 78.587 C 886.34 76.614 890.603 75.027 895.49 73.827 C 900.383 72.634 905.117 72.037 909.69 72.037 Z M 904.85 139.427 C 910.57 139.427 915.25 137.477 918.89 133.577 C 922.53 129.677 924.35 124.66 924.35 118.527 L 924.35 114.467 L 921.55 114.467 C 913.437 114.467 907.197 114.83 902.83 115.557 C 898.457 116.29 895.337 117.514 893.47 119.227 C 891.597 120.94 890.66 123.41 890.66 126.637 C 890.66 130.384 892.01 133.45 894.71 135.837 C 897.417 138.23 900.797 139.427 904.85 139.427 Z M 993.77 151.127 C 986.39 151.127 979.917 149.517 974.35 146.297 C 968.79 143.07 964.473 138.494 961.4 132.567 C 958.333 126.64 956.8 119.777 956.8 111.977 C 956.8 104.07 958.387 97.1 961.56 91.067 C 964.733 85.034 969.18 80.354 974.9 77.027 C 980.62 73.7 987.17 72.037 994.55 72.037 C 998.503 72.037 1002.483 72.61 1006.49 73.757 C 1010.49 74.897 1014.05 76.457 1017.17 78.437 C 1020.503 80.724 1022.17 83.374 1022.17 86.387 C 1022.17 88.154 1021.7 89.637 1020.76 90.837 C 1019.827 92.03 1018.63 92.627 1017.17 92.627 C 1016.237 92.627 1015.303 92.394 1014.37 91.927 C 1013.43 91.46 1012.233 90.757 1010.78 89.817 C 1008.18 88.157 1005.76 86.884 1003.52 85.997 C 1001.287 85.117 998.61 84.677 995.49 84.677 C 988.417 84.677 982.93 87.067 979.03 91.847 C 975.13 96.634 973.18 103.29 973.18 111.817 C 973.18 120.344 975.103 126.92 978.95 131.547 C 982.803 136.18 988.263 138.497 995.33 138.497 C 998.45 138.497 1001.207 138.027 1003.6 137.087 C 1005.993 136.154 1008.437 134.907 1010.93 133.347 C 1012.077 132.62 1013.223 131.997 1014.37 131.477 C 1015.51 130.957 1016.55 130.697 1017.49 130.697 C 1018.943 130.697 1020.137 131.294 1021.07 132.487 C 1022.01 133.68 1022.48 135.164 1022.48 136.937 C 1022.48 138.39 1022.09 139.714 1021.31 140.907 C 1020.53 142.107 1019.203 143.33 1017.33 144.577 C 1014.21 146.657 1010.57 148.27 1006.41 149.417 C 1002.25 150.557 998.037 151.127 993.77 151.127 Z M 1074.11 138.807 C 1076.403 139.014 1078.043 139.61 1079.03 140.597 C 1080.017 141.584 1080.51 142.964 1080.51 144.737 C 1080.51 146.817 1079.703 148.4 1078.09 149.487 C 1076.477 150.58 1074.11 151.024 1070.99 150.817 L 1066.78 150.507 C 1058.36 149.88 1052.07 147.307 1047.91 142.787 C 1043.75 138.26 1041.67 131.577 1041.67 122.737 L 1041.67 86.077 L 1032.31 86.077 C 1027.73 86.077 1025.44 84.05 1025.44 79.997 C 1025.44 78.124 1026.04 76.64 1027.24 75.547 C 1028.433 74.454 1030.123 73.907 1032.31 73.907 L 1041.67 73.907 L 1041.67 57.837 C 1041.67 55.45 1042.37 53.58 1043.77 52.227 C 1045.177 50.874 1047.077 50.197 1049.47 50.197 C 1051.857 50.197 1053.78 50.874 1055.24 52.227 C 1056.693 53.58 1057.42 55.45 1057.42 57.837 L 1057.42 73.907 L 1072.87 73.907 C 1075.05 73.907 1076.74 74.454 1077.94 75.547 C 1079.133 76.64 1079.73 78.124 1079.73 79.997 C 1079.73 81.97 1079.133 83.477 1077.94 84.517 C 1076.74 85.557 1075.05 86.077 1072.87 86.077 L 1057.42 86.077 L 1057.42 123.827 C 1057.42 128.714 1058.433 132.304 1060.46 134.597 C 1062.493 136.884 1065.59 138.184 1069.75 138.497 L 1074.11 138.807 Z M 1099.858 150.817 C 1097.564 150.817 1095.664 150.194 1094.158 148.947 C 1092.651 147.7 1091.898 145.827 1091.898 143.327 L 1091.898 79.997 C 1091.898 77.497 1092.651 75.597 1094.158 74.297 C 1095.664 72.997 1097.564 72.347 1099.858 72.347 C 1102.144 72.347 1104.014 72.997 1105.468 74.297 C 1106.928 75.597 1107.658 77.497 1107.658 79.997 L 1107.658 143.327 C 1107.658 145.827 1106.928 147.7 1105.468 148.947 C 1104.014 150.194 1102.144 150.817 1099.858 150.817 Z M 1099.858 57.057 C 1096.838 57.057 1094.444 56.227 1092.678 54.567 C 1090.911 52.9 1090.028 50.717 1090.028 48.017 C 1090.028 45.31 1090.911 43.15 1092.678 41.537 C 1094.444 39.924 1096.838 39.117 1099.858 39.117 C 1102.764 39.117 1105.128 39.924 1106.948 41.537 C 1108.768 43.15 1109.678 45.31 1109.678 48.017 C 1109.678 50.717 1108.794 52.9 1107.028 54.567 C 1105.261 56.227 1102.871 57.057 1099.858 57.057 Z M 1162.72 151.127 C 1155.233 151.127 1148.657 149.517 1142.99 146.297 C 1137.323 143.07 1132.953 138.467 1129.88 132.487 C 1126.813 126.507 1125.28 119.564 1125.28 111.657 C 1125.28 103.65 1126.813 96.657 1129.88 90.677 C 1132.953 84.697 1137.323 80.097 1142.99 76.877 C 1148.657 73.65 1155.233 72.037 1162.72 72.037 C 1170.207 72.037 1176.787 73.65 1182.46 76.877 C 1188.127 80.097 1192.493 84.697 1195.56 90.677 C 1198.627 96.657 1200.16 103.65 1200.16 111.657 C 1200.16 119.564 1198.627 126.507 1195.56 132.487 C 1192.493 138.467 1188.127 143.07 1182.46 146.297 C 1176.787 149.517 1170.207 151.127 1162.72 151.127 Z M 1162.72 138.647 C 1169.687 138.647 1175.017 136.36 1178.71 131.787 C 1182.403 127.207 1184.25 120.497 1184.25 111.657 C 1184.25 102.924 1182.377 96.244 1178.63 91.617 C 1174.89 86.99 1169.587 84.677 1162.72 84.677 C 1155.86 84.677 1150.557 86.99 1146.81 91.617 C 1143.063 96.244 1141.19 102.924 1141.19 111.657 C 1141.19 120.497 1143.037 127.207 1146.73 131.787 C 1150.423 136.36 1155.753 138.647 1162.72 138.647 Z M 1258.664 72.037 C 1276.864 72.037 1285.964 82.28 1285.964 102.767 L 1285.964 143.327 C 1285.964 145.72 1285.261 147.567 1283.854 148.867 C 1282.454 150.167 1280.504 150.817 1278.004 150.817 C 1275.611 150.817 1273.714 150.14 1272.314 148.787 C 1270.907 147.434 1270.204 145.614 1270.204 143.327 L 1270.204 103.547 C 1270.204 97.1 1268.931 92.37 1266.384 89.357 C 1263.837 86.337 1259.861 84.827 1254.454 84.827 C 1248.107 84.827 1243.011 86.804 1239.164 90.757 C 1235.317 94.71 1233.394 100.014 1233.394 106.667 L 1233.394 143.327 C 1233.394 145.614 1232.691 147.434 1231.284 148.787 C 1229.877 150.14 1227.981 150.817 1225.594 150.817 C 1223.201 150.817 1221.274 150.14 1219.814 148.787 C 1218.361 147.434 1217.634 145.614 1217.634 143.327 L 1217.634 79.837 C 1217.634 77.65 1218.387 75.857 1219.894 74.457 C 1221.401 73.05 1223.301 72.347 1225.594 72.347 C 1227.881 72.347 1229.701 73.024 1231.054 74.377 C 1232.401 75.73 1233.074 77.497 1233.074 79.677 L 1233.074 86.077 C 1235.574 81.504 1239.061 78.02 1243.534 75.627 C 1248.001 73.234 1253.044 72.037 1258.664 72.037 Z" style="white-space: pre; fill: rgb(68, 68, 68);"/>
</svg>