<svg viewBox="0 0 190 190" xmlns="http://www.w3.org/2000/svg">
  <path d="M189 95A94 94 0 111 95a94 94 0 11188 0zM82 119.96a69.4 69.4 0 01-8.91 4.4c-2.8 1.1-6.25 1.65-10.37 1.65-7.88 0-13.97-2.3-18.3-6.9-4.31-4.61-6.62-11.33-6.9-20.17h47.95c1.72 0 2.97-.4 3.74-1.22s1.16-2.1 1.16-3.82c0-10.17-2.62-18.17-7.85-23.98-5.24-5.8-12.37-8.7-21.4-8.7-6.42 0-12.1 1.5-17.05 4.53a30.43 30.43 0 00-11.52 12.81c-2.74 5.52-4.1 11.88-4.1 19.08 0 11.23 3.07 20.07 9.2 26.5 6.15 6.43 14.55 9.65 25.2 9.65 7.69 0 14.98-2.06 21.9-6.19 3.26-2.02 4.9-4.08 4.9-6.2 0-.96-.32-1.8-.94-2.52a2.87 2.87 0 00-2.23-1.08c-.87 0-2.36.72-4.47 2.16zm-5.46-45.28c3.64 4.17 5.56 10.1 5.76 17.78H37.8c.77-7.58 3.17-13.49 7.2-17.7 4.03-4.23 9.4-6.35 16.13-6.35 6.62 0 11.76 2.1 15.4 6.27zm76.1 53.42c5.23-3.8 7.85-8.8 7.85-15.05 0-3.93-.8-7.17-2.38-9.72-1.58-2.54-4.2-4.67-7.84-6.4-3.66-1.74-8.7-3.27-15.12-4.6-6.24-1.36-10.5-2.77-12.75-4.26a7.1 7.1 0 01-3.38-6.27 8.18 8.18 0 013.67-7.05c2.45-1.72 5.69-2.59 9.72-2.59 3.36 0 6.16.43 8.42 1.3 2.26.86 4.68 2.06 7.28 3.6 1.44.86 2.59 1.48 3.45 1.86a6.3 6.3 0 002.59.58c1.25 0 2.33-.53 3.24-1.58a5.76 5.76 0 001.37-3.89c0-2.78-1.58-5.23-4.75-7.35-2.79-1.92-6-3.38-9.65-4.39a42 42 0 00-11.23-1.5c-5.38 0-10.17.9-14.4 2.73a23.33 23.33 0 00-9.94 7.7 18.56 18.56 0 00-3.6 11.16c0 5.38 1.85 9.62 5.55 12.74 3.7 3.12 9.76 5.6 18.2 7.42 4.9 1.05 8.6 2.04 11.1 2.95 2.5.92 4.25 1.95 5.26 3.1a6.76 6.76 0 011.5 4.61c0 2.97-1.29 5.28-3.88 6.91-2.6 1.64-6.2 2.45-10.8 2.45-4.13 0-7.56-.48-10.3-1.44a60.02 60.02 0 01-8.42-3.75c-2.69-1.53-4.66-2.3-5.9-2.3-1.35 0-2.45.53-3.31 1.58a5.94 5.94 0 00-1.3 3.9 7.2 7.2 0 001.08 3.88 10.9 10.9 0 003.67 3.31c6.24 4.04 14.25 6.05 24.05 6.05 8.73 0 15.72-1.9 20.95-5.69z"/>
</svg>
