<svg viewBox="0 0 660 660" xmlns="http://www.w3.org/2000/svg">
  <path d="M660 330c0 182.25-147.75 330-330 330S0 512.25 0 330 147.75 0 330 0s330 147.75 330 330zm-329.4-84.48a85 85 0 100 170 85 85 0 000-170zm-39.27-181.1a67.5 67.5 0 100 135 67.5 67.5 0 000-135zm76.44 396.16a67.5 67.5 0 100 135 67.5 67.5 0 000-135zM139.5 211.34a52.5 52.5 0 100 105 52.5 52.5 0 000-105zm342.33-66.49a52.5 52.5 0 100 105 52.5 52.5 0 000-105zm38.67 198.41a52.5 52.5 0 100 105 52.5 52.5 0 000-105zm-342.64 66.55a52.5 52.5 0 100 105 52.5 52.5 0 000-105z"/>
</svg>
