<?xml version="1.0" encoding="utf-8"?>
<svg viewBox="0 0 1050 190" xmlns="http://www.w3.org/2000/svg">
  <defs>
    <radialGradient id="gradient-1" gradientUnits="userSpaceOnUse" cx="152.286" cy="126.898" r="330" gradientTransform="matrix(0.638467, -1.091841, 1.097297, 0.641658, 52.727183, 218.434182)">
      <stop offset="0" style="stop-color: rgb(0, 170, 237);"/>
      <stop offset="1" style="stop-color: rgb(0, 145, 202);"/>
    </radialGradient>
    <linearGradient id="gradient-0" gradientUnits="userSpaceOnUse" x1="330" y1="0" x2="330" y2="660" gradientTransform="matrix(0.980745, -0.195296, 0.195753, 0.983035, -58.663244, 70.697931)">
      <stop offset="0" style="stop-color: rgb(152, 226, 255);"/>
      <stop offset="1" style="stop-color: rgb(78, 193, 239);"/>
    </linearGradient>
  </defs>
  <g transform="matrix(0.257576, 0, 0, 0.257576, 4, 3.750038)">
    <g>
      <circle style="fill: url(#gradient-1); stroke: url(#gradient-0); stroke-width: 20px;" cx="330" cy="330" r="330"/>
      <g transform="matrix(1, 0, 0, 1, 76.243515, 77.183487)">
        <circle style="fill: rgb(255, 255, 255); stroke: rgb(152, 226, 255); stroke-width: 20px;" cx="254.358" cy="253.337" r="75"/>
        <circle style="fill: rgb(212, 243, 255); stroke: rgb(99, 211, 255); stroke-width: 20px;" cx="215.084" cy="54.739" r="57.5"/>
        <circle style="stroke: rgb(78, 193, 239); fill: rgb(179, 233, 255); stroke-width: 20px;" cx="63.26" cy="186.66" r="42.5"/>
        <circle style="stroke: rgb(78, 193, 239); fill: rgb(179, 233, 255); stroke-width: 20px;" cx="405.584" cy="120.172" r="42.5"/>
        <circle style="stroke: rgb(78, 193, 239); fill: rgb(179, 233, 255); stroke-width: 20px;" cx="444.253" cy="318.582" r="42.5"/>
        <circle style="stroke: rgb(78, 193, 239); fill: rgb(179, 233, 255); stroke-width: 20px;" cx="101.614" cy="385.13" r="42.5"/>
        <circle style="fill: rgb(212, 243, 255); stroke: rgb(99, 211, 255); stroke-width: 20px;" cx="291.529" cy="450.894" r="57.5"/>
      </g>
    </g>
  </g>
  <path d="M 271.066 99.245 C 271.975 99.245 272.761 99.617 273.422 100.361 C 274.083 101.105 274.414 102.056 274.414 103.213 C 274.414 105.28 272.967 107.181 270.074 108.917 C 267.098 110.653 263.957 111.955 260.65 112.823 C 257.343 113.691 254.119 114.125 250.978 114.125 C 241.637 114.125 234.259 111.356 228.844 105.817 C 223.429 100.278 220.722 92.632 220.722 82.877 C 220.722 76.677 221.921 71.2 224.318 66.447 C 226.715 61.694 230.084 57.994 234.424 55.349 C 238.764 52.704 243.703 51.381 249.242 51.381 C 257.095 51.381 263.337 53.944 267.966 59.069 C 272.595 64.194 274.91 71.138 274.91 79.901 C 274.91 81.554 274.579 82.753 273.918 83.497 C 273.257 84.241 272.182 84.613 270.694 84.613 L 230.766 84.613 C 231.51 98.832 238.247 105.941 250.978 105.941 C 254.202 105.941 256.971 105.507 259.286 104.639 C 261.601 103.771 264.081 102.593 266.726 101.105 C 268.875 99.865 270.322 99.245 271.066 99.245 Z M 249.366 59.193 C 244.075 59.193 239.839 60.846 236.656 64.153 C 233.473 67.46 231.593 72.13 231.014 78.165 L 266.106 78.165 C 265.941 72.048 264.411 67.356 261.518 64.091 C 258.625 60.826 254.574 59.193 249.366 59.193 Z" style="fill-opacity: 1.0; white-space: pre;"/>
  <path d="M 314.338 51.381 C 329.466 51.381 337.03 59.317 337.03 75.189 L 337.03 108.917 C 337.03 110.405 336.596 111.604 335.728 112.513 C 334.86 113.422 333.682 113.877 332.194 113.877 C 330.706 113.877 329.507 113.422 328.598 112.513 C 327.689 111.604 327.234 110.405 327.234 108.917 L 327.234 102.965 C 325.663 106.52 323.266 109.268 320.042 111.211 C 316.818 113.154 313.098 114.125 308.882 114.125 C 304.997 114.125 301.421 113.34 298.156 111.769 C 294.891 110.198 292.307 108.008 290.406 105.197 C 288.505 102.386 287.554 99.286 287.554 95.897 C 287.554 91.35 288.711 87.816 291.026 85.295 C 293.341 82.774 297.143 80.955 302.434 79.839 C 307.725 78.723 315.082 78.165 324.506 78.165 L 327.234 78.165 L 327.234 74.073 C 327.234 69.113 326.221 65.476 324.196 63.161 C 322.171 60.846 318.885 59.689 314.338 59.689 C 308.717 59.689 303.013 61.218 297.226 64.277 C 294.994 65.682 293.423 66.385 292.514 66.385 C 291.522 66.385 290.695 66.013 290.034 65.269 C 289.373 64.525 289.042 63.574 289.042 62.417 C 289.042 61.26 289.393 60.247 290.096 59.379 C 290.799 58.511 291.935 57.622 293.506 56.713 C 296.399 55.06 299.685 53.758 303.364 52.807 C 307.043 51.856 310.701 51.381 314.338 51.381 Z M 310.246 106.189 C 315.206 106.189 319.277 104.515 322.46 101.167 C 325.643 97.819 327.234 93.5 327.234 88.209 L 327.234 84.613 L 325.002 84.613 C 317.727 84.613 312.189 84.923 308.386 85.543 C 304.583 86.163 301.876 87.196 300.264 88.643 C 298.652 90.09 297.846 92.218 297.846 95.029 C 297.846 98.253 299.024 100.919 301.38 103.027 C 303.736 105.135 306.691 106.189 310.246 106.189 Z" style="fill-opacity: 1.0; white-space: pre;"/>
  <path d="M 375.717 114.125 C 371.914 114.125 368.298 113.67 364.867 112.761 C 361.436 111.852 358.398 110.57 355.753 108.917 C 354.265 107.925 353.211 106.995 352.591 106.127 C 351.971 105.259 351.661 104.205 351.661 102.965 C 351.661 101.89 351.971 101.002 352.591 100.299 C 353.211 99.596 354.017 99.245 355.009 99.245 C 356.001 99.245 357.448 99.865 359.349 101.105 C 361.829 102.593 364.288 103.771 366.727 104.639 C 369.166 105.507 372.204 105.941 375.841 105.941 C 380.305 105.941 383.777 105.156 386.257 103.585 C 388.737 102.014 389.977 99.741 389.977 96.765 C 389.977 94.946 389.522 93.479 388.613 92.363 C 387.704 91.247 386.133 90.255 383.901 89.387 C 381.669 88.519 378.404 87.63 374.105 86.721 C 366.83 85.15 361.622 83.042 358.481 80.397 C 355.34 77.752 353.769 74.156 353.769 69.609 C 353.769 66.054 354.761 62.913 356.745 60.185 C 358.729 57.457 361.478 55.308 364.991 53.737 C 368.504 52.166 372.493 51.381 376.957 51.381 C 380.181 51.381 383.302 51.815 386.319 52.683 C 389.336 53.551 392.002 54.77 394.317 56.341 C 397.128 58.325 398.533 60.392 398.533 62.541 C 398.533 63.616 398.202 64.525 397.541 65.269 C 396.88 66.013 396.094 66.385 395.185 66.385 C 394.193 66.385 392.705 65.682 390.721 64.277 C 388.406 62.789 386.216 61.632 384.149 60.805 C 382.082 59.978 379.52 59.565 376.461 59.565 C 372.576 59.565 369.455 60.433 367.099 62.169 C 364.743 63.905 363.565 66.22 363.565 69.113 C 363.565 70.932 363.999 72.399 364.867 73.515 C 365.735 74.631 367.182 75.623 369.207 76.491 C 371.232 77.359 374.146 78.206 377.949 79.033 C 383.57 80.273 387.931 81.637 391.031 83.125 C 394.131 84.613 396.342 86.432 397.665 88.581 C 398.988 90.73 399.649 93.458 399.649 96.765 C 399.649 101.973 397.458 106.168 393.077 109.351 C 388.696 112.534 382.909 114.125 375.717 114.125 Z" style="fill-opacity: 1.0; white-space: pre;"/>
  <path d="M 457.311 54.729 C 458.22 52.745 459.667 51.753 461.651 51.753 C 462.891 51.753 464.007 52.166 464.999 52.993 C 465.991 53.82 466.487 54.853 466.487 56.093 C 466.487 56.837 466.322 57.498 465.991 58.077 L 431.147 133.221 C 430.734 134.13 430.134 134.833 429.349 135.329 C 428.564 135.825 427.758 136.073 426.931 136.073 C 425.691 136.073 424.596 135.68 423.645 134.895 C 422.694 134.11 422.219 133.097 422.219 131.857 C 422.219 131.196 422.384 130.534 422.715 129.873 L 431.395 111.149 L 406.843 58.077 C 406.512 57.498 406.347 56.878 406.347 56.217 C 406.347 54.977 406.905 53.902 408.021 52.993 C 409.137 52.084 410.356 51.629 411.679 51.629 C 412.506 51.629 413.312 51.877 414.097 52.373 C 414.882 52.869 415.482 53.572 415.895 54.481 L 436.603 100.981 L 457.311 54.729 Z" style="fill-opacity: 1.0; white-space: pre;"/>
  <path d="M 526.881 25.217 C 529.196 25.217 531.097 25.878 532.585 27.201 C 534.073 28.524 534.817 30.26 534.817 32.409 L 534.817 106.561 C 534.817 108.793 534.114 110.57 532.709 111.893 C 531.304 113.216 529.444 113.877 527.129 113.877 C 524.814 113.877 522.954 113.216 521.549 111.893 C 520.144 110.57 519.441 108.793 519.441 106.561 L 519.441 103.461 C 517.622 106.85 514.998 109.496 511.567 111.397 C 508.136 113.298 504.23 114.249 499.849 114.249 C 494.641 114.249 489.991 112.926 485.899 110.281 C 481.807 107.636 478.624 103.895 476.351 99.059 C 474.078 94.223 472.941 88.664 472.941 82.381 C 472.941 76.098 474.078 70.601 476.351 65.889 C 478.624 61.177 481.786 57.54 485.837 54.977 C 489.888 52.414 494.558 51.133 499.849 51.133 C 504.23 51.133 508.116 52.042 511.505 53.861 C 514.894 55.68 517.498 58.242 519.317 61.549 L 519.317 32.161 C 519.317 30.094 519.999 28.42 521.363 27.139 C 522.727 25.858 524.566 25.217 526.881 25.217 Z M 503.941 102.221 C 508.901 102.221 512.724 100.526 515.411 97.137 C 518.098 93.748 519.441 88.912 519.441 82.629 C 519.441 76.346 518.098 71.531 515.411 68.183 C 512.724 64.835 508.942 63.161 504.065 63.161 C 499.105 63.161 495.261 64.814 492.533 68.121 C 489.805 71.428 488.441 76.181 488.441 82.381 C 488.441 88.664 489.805 93.541 492.533 97.013 C 495.261 100.485 499.064 102.221 503.941 102.221 Z" style="fill-opacity: 1.0; white-space: pre;"/>
  <path d="M 558.5 114.001 C 556.268 114.001 554.429 113.36 552.982 112.079 C 551.535 110.798 550.812 108.958 550.812 106.561 L 550.812 58.697 C 550.812 56.3 551.535 54.481 552.982 53.241 C 554.429 52.001 556.268 51.381 558.5 51.381 C 560.732 51.381 562.592 52.001 564.08 53.241 C 565.568 54.481 566.312 56.3 566.312 58.697 L 566.312 106.561 C 566.312 108.958 565.568 110.798 564.08 112.079 C 562.592 113.36 560.732 114.001 558.5 114.001 Z M 558.5 40.345 C 555.689 40.345 553.457 39.58 551.804 38.051 C 550.151 36.522 549.324 34.517 549.324 32.037 C 549.324 29.557 550.151 27.573 551.804 26.085 C 553.457 24.597 555.689 23.853 558.5 23.853 C 561.228 23.853 563.439 24.597 565.134 26.085 C 566.829 27.573 567.676 29.557 567.676 32.037 C 567.676 34.517 566.849 36.522 565.196 38.051 C 563.543 39.58 561.311 40.345 558.5 40.345 Z" style="fill-opacity: 1.0; white-space: pre;"/>
  <path d="M 612.933 37.369 C 609.13 37.617 606.361 38.774 604.625 40.841 C 602.889 42.908 602.021 45.884 602.021 49.769 L 602.021 52.621 L 612.561 52.621 C 617.19 52.621 619.505 54.564 619.505 58.449 C 619.505 62.334 617.19 64.277 612.561 64.277 L 602.021 64.277 L 602.021 106.561 C 602.021 108.958 601.298 110.777 599.851 112.017 C 598.404 113.257 596.565 113.877 594.333 113.877 C 592.101 113.877 590.241 113.257 588.753 112.017 C 587.265 110.777 586.521 108.958 586.521 106.561 L 586.521 64.277 L 580.321 64.277 C 575.692 64.277 573.377 62.334 573.377 58.449 C 573.377 54.564 575.692 52.621 580.321 52.621 L 586.521 52.621 L 586.521 51.753 C 586.521 43.982 588.567 37.886 592.659 33.463 C 596.751 29.04 602.517 26.54 609.957 25.961 L 613.181 25.713 C 616.488 25.465 618.823 25.816 620.187 26.767 C 621.551 27.718 622.233 29.185 622.233 31.169 C 622.233 34.724 620.208 36.708 616.157 37.121 L 612.933 37.369 Z" style="fill-opacity: 1.0; white-space: pre;"/>
  <path d="M 656.206 37.369 C 652.403 37.617 649.634 38.774 647.898 40.841 C 646.162 42.908 645.294 45.884 645.294 49.769 L 645.294 52.621 L 655.834 52.621 C 660.463 52.621 662.778 54.564 662.778 58.449 C 662.778 62.334 660.463 64.277 655.834 64.277 L 645.294 64.277 L 645.294 106.561 C 645.294 108.958 644.571 110.777 643.124 112.017 C 641.677 113.257 639.838 113.877 637.606 113.877 C 635.374 113.877 633.514 113.257 632.026 112.017 C 630.538 110.777 629.794 108.958 629.794 106.561 L 629.794 64.277 L 623.594 64.277 C 618.965 64.277 616.65 62.334 616.65 58.449 C 616.65 54.564 618.965 52.621 623.594 52.621 L 629.794 52.621 L 629.794 51.753 C 629.794 43.982 631.84 37.886 635.932 33.463 C 640.024 29.04 645.79 26.54 653.23 25.961 L 656.454 25.713 C 659.761 25.465 662.096 25.816 663.46 26.767 C 664.824 27.718 665.506 29.185 665.506 31.169 C 665.506 34.724 663.481 36.708 659.43 37.121 L 656.206 37.369 Z" style="fill-opacity: 1.0; white-space: pre;"/>
  <path d="M 703.828 51.381 C 705.977 51.216 707.672 51.67 708.912 52.745 C 710.152 53.82 710.772 55.432 710.772 57.581 C 710.772 59.813 710.235 61.466 709.16 62.541 C 708.085 63.616 706.143 64.318 703.332 64.649 L 699.612 65.021 C 694.735 65.517 691.159 67.17 688.886 69.981 C 686.613 72.792 685.476 76.305 685.476 80.521 L 685.476 106.561 C 685.476 108.958 684.732 110.798 683.244 112.079 C 681.756 113.36 679.896 114.001 677.664 114.001 C 675.432 114.001 673.593 113.36 672.146 112.079 C 670.699 110.798 669.976 108.958 669.976 106.561 L 669.976 58.573 C 669.976 56.258 670.699 54.481 672.146 53.241 C 673.593 52.001 675.391 51.381 677.54 51.381 C 679.689 51.381 681.425 51.98 682.748 53.179 C 684.071 54.378 684.732 56.093 684.732 58.325 L 684.732 63.285 C 686.303 59.648 688.638 56.837 691.738 54.853 C 694.838 52.869 698.289 51.753 702.092 51.505 L 703.828 51.381 Z" style="fill-opacity: 1.0; white-space: pre;"/>
  <path d="M 743.507 51.133 C 751.939 51.133 758.201 53.22 762.293 57.395 C 766.385 61.57 768.431 67.914 768.431 76.429 L 768.431 106.685 C 768.431 108.917 767.77 110.674 766.447 111.955 C 765.124 113.236 763.306 113.877 760.991 113.877 C 758.842 113.877 757.085 113.216 755.721 111.893 C 754.357 110.57 753.675 108.834 753.675 106.685 L 753.675 103.957 C 752.27 107.181 750.058 109.702 747.041 111.521 C 744.024 113.34 740.531 114.249 736.563 114.249 C 732.512 114.249 728.834 113.422 725.527 111.769 C 722.22 110.116 719.616 107.842 717.715 104.949 C 715.814 102.056 714.863 98.832 714.863 95.277 C 714.863 90.813 716 87.3 718.273 84.737 C 720.546 82.174 724.246 80.314 729.371 79.157 C 734.496 78 741.564 77.421 750.575 77.421 L 753.675 77.421 L 753.675 74.569 C 753.675 70.518 752.807 67.563 751.071 65.703 C 749.335 63.843 746.524 62.913 742.639 62.913 C 740.242 62.913 737.803 63.264 735.323 63.967 C 732.843 64.67 729.908 65.682 726.519 67.005 C 724.37 68.08 722.799 68.617 721.807 68.617 C 720.319 68.617 719.1 68.08 718.149 67.005 C 717.198 65.93 716.723 64.525 716.723 62.789 C 716.723 61.384 717.074 60.164 717.777 59.131 C 718.48 58.098 719.658 57.126 721.311 56.217 C 724.204 54.646 727.656 53.406 731.665 52.497 C 735.674 51.588 739.622 51.133 743.507 51.133 Z M 739.663 103.089 C 743.796 103.089 747.165 101.704 749.769 98.935 C 752.373 96.166 753.675 92.59 753.675 88.209 L 753.675 85.605 L 751.443 85.605 C 745.904 85.605 741.606 85.853 738.547 86.349 C 735.488 86.845 733.298 87.713 731.975 88.953 C 730.652 90.193 729.991 91.888 729.991 94.037 C 729.991 96.682 730.921 98.852 732.781 100.547 C 734.641 102.242 736.935 103.089 739.663 103.089 Z" style="fill-opacity: 1.0; white-space: pre;"/>
  <path d="M 811.088 114.249 C 805.053 114.249 799.742 112.968 795.154 110.405 C 790.566 107.842 787.032 104.205 784.552 99.493 C 782.072 94.781 780.832 89.284 780.832 83.001 C 780.832 76.718 782.134 71.159 784.738 66.323 C 787.342 61.487 791 57.746 795.712 55.101 C 800.424 52.456 805.839 51.133 811.956 51.133 C 815.18 51.133 818.425 51.588 821.69 52.497 C 824.955 53.406 827.828 54.646 830.308 56.217 C 832.953 57.953 834.276 60.144 834.276 62.789 C 834.276 64.608 833.842 66.075 832.974 67.191 C 832.106 68.307 830.969 68.865 829.564 68.865 C 828.655 68.865 827.704 68.658 826.712 68.245 C 825.72 67.832 824.728 67.336 823.736 66.757 C 821.917 65.682 820.181 64.835 818.528 64.215 C 816.875 63.595 814.973 63.285 812.824 63.285 C 807.699 63.285 803.751 64.959 800.982 68.307 C 798.213 71.655 796.828 76.47 796.828 82.753 C 796.828 88.953 798.213 93.727 800.982 97.075 C 803.751 100.423 807.699 102.097 812.824 102.097 C 814.891 102.097 816.73 101.787 818.342 101.167 C 819.954 100.547 821.752 99.7 823.736 98.625 C 824.976 97.881 826.051 97.323 826.96 96.951 C 827.869 96.579 828.779 96.393 829.688 96.393 C 831.011 96.393 832.127 96.972 833.036 98.129 C 833.945 99.286 834.4 100.733 834.4 102.469 C 834.4 103.874 834.09 105.094 833.47 106.127 C 832.85 107.16 831.837 108.09 830.432 108.917 C 827.869 110.57 824.893 111.872 821.504 112.823 C 818.115 113.774 814.643 114.249 811.088 114.249 Z" style="fill-opacity: 1.0; white-space: pre;"/>
  <path d="M 876.558 102.469 C 880.691 102.717 882.758 104.577 882.758 108.049 C 882.758 110.033 881.952 111.542 880.34 112.575 C 878.728 113.608 876.434 114.042 873.458 113.877 L 870.11 113.629 C 856.222 112.637 849.278 105.197 849.278 91.309 L 849.278 64.277 L 843.078 64.277 C 840.846 64.277 839.131 63.781 837.932 62.789 C 836.733 61.797 836.134 60.35 836.134 58.449 C 836.134 56.548 836.733 55.101 837.932 54.109 C 839.131 53.117 840.846 52.621 843.078 52.621 L 849.278 52.621 L 849.278 41.213 C 849.278 38.981 849.981 37.204 851.386 35.881 C 852.791 34.558 854.693 33.897 857.09 33.897 C 859.405 33.897 861.265 34.558 862.67 35.881 C 864.075 37.204 864.778 38.981 864.778 41.213 L 864.778 52.621 L 875.318 52.621 C 877.55 52.621 879.265 53.117 880.464 54.109 C 881.663 55.101 882.262 56.548 882.262 58.449 C 882.262 60.35 881.663 61.797 880.464 62.789 C 879.265 63.781 877.55 64.277 875.318 64.277 L 864.778 64.277 L 864.778 92.425 C 864.778 98.542 867.589 101.808 873.21 102.221 L 876.558 102.469 Z" style="fill-opacity: 1.0; white-space: pre;"/>
  <path d="M 898.508 114.001 C 896.276 114.001 894.437 113.36 892.99 112.079 C 891.543 110.798 890.82 108.958 890.82 106.561 L 890.82 58.697 C 890.82 56.3 891.543 54.481 892.99 53.241 C 894.437 52.001 896.276 51.381 898.508 51.381 C 900.74 51.381 902.6 52.001 904.088 53.241 C 905.576 54.481 906.32 56.3 906.32 58.697 L 906.32 106.561 C 906.32 108.958 905.576 110.798 904.088 112.079 C 902.6 113.36 900.74 114.001 898.508 114.001 Z M 898.508 40.345 C 895.697 40.345 893.465 39.58 891.812 38.051 C 890.159 36.522 889.332 34.517 889.332 32.037 C 889.332 29.557 890.159 27.573 891.812 26.085 C 893.465 24.597 895.697 23.853 898.508 23.853 C 901.236 23.853 903.447 24.597 905.142 26.085 C 906.837 27.573 907.684 29.557 907.684 32.037 C 907.684 34.517 906.857 36.522 905.204 38.051 C 903.551 39.58 901.319 40.345 898.508 40.345 Z" style="fill-opacity: 1.0; white-space: pre;"/>
  <path d="M 949.964 114.249 C 943.764 114.249 938.329 112.968 933.658 110.405 C 928.987 107.842 925.371 104.164 922.808 99.369 C 920.245 94.574 918.964 88.994 918.964 82.629 C 918.964 76.264 920.245 70.704 922.808 65.951 C 925.371 61.198 928.987 57.54 933.658 54.977 C 938.329 52.414 943.764 51.133 949.964 51.133 C 956.164 51.133 961.599 52.414 966.27 54.977 C 970.941 57.54 974.537 61.198 977.058 65.951 C 979.579 70.704 980.84 76.264 980.84 82.629 C 980.84 88.994 979.579 94.574 977.058 99.369 C 974.537 104.164 970.941 107.842 966.27 110.405 C 961.599 112.968 956.164 114.249 949.964 114.249 Z M 949.84 102.221 C 954.883 102.221 958.727 100.568 961.372 97.261 C 964.017 93.954 965.34 89.077 965.34 82.629 C 965.34 76.264 964.017 71.407 961.372 68.059 C 958.727 64.711 954.924 63.037 949.964 63.037 C 945.004 63.037 941.181 64.711 938.494 68.059 C 935.807 71.407 934.464 76.264 934.464 82.629 C 934.464 89.077 935.787 93.954 938.432 97.261 C 941.077 100.568 944.88 102.221 949.84 102.221 Z" style="fill-opacity: 1.0; white-space: pre;"/>
  <path d="M 1028.825 51.133 C 1036.1 51.133 1041.514 53.2 1045.069 57.333 C 1048.624 61.466 1050.401 67.708 1050.401 76.057 L 1050.401 106.561 C 1050.401 108.876 1049.719 110.694 1048.355 112.017 C 1046.991 113.34 1045.11 114.001 1042.713 114.001 C 1040.316 114.001 1038.414 113.34 1037.009 112.017 C 1035.604 110.694 1034.901 108.876 1034.901 106.561 L 1034.901 76.925 C 1034.901 72.213 1034.012 68.782 1032.235 66.633 C 1030.458 64.484 1027.668 63.409 1023.865 63.409 C 1019.401 63.409 1015.826 64.814 1013.139 67.625 C 1010.452 70.436 1009.109 74.197 1009.109 78.909 L 1009.109 106.561 C 1009.109 108.876 1008.406 110.694 1007.001 112.017 C 1005.596 113.34 1003.694 114.001 1001.297 114.001 C 998.9 114.001 997.019 113.34 995.655 112.017 C 994.291 110.694 993.609 108.876 993.609 106.561 L 993.609 58.573 C 993.609 56.424 994.312 54.688 995.717 53.365 C 997.122 52.042 999.024 51.381 1001.421 51.381 C 1003.57 51.381 1005.327 52.022 1006.691 53.303 C 1008.055 54.584 1008.737 56.258 1008.737 58.325 L 1008.737 61.673 C 1010.804 58.284 1013.573 55.68 1017.045 53.861 C 1020.517 52.042 1024.444 51.133 1028.825 51.133 Z" style="fill-opacity: 1.0; white-space: pre;"/>
  <path d="M 764.522 140.809 C 772.086 140.809 775.868 144.777 775.868 152.713 L 775.868 169.577 C 775.868 170.321 775.651 170.92 775.217 171.375 C 774.783 171.83 774.194 172.057 773.45 172.057 C 772.706 172.057 772.107 171.83 771.652 171.375 C 771.197 170.92 770.97 170.321 770.97 169.577 L 770.97 166.601 C 770.185 168.378 768.986 169.753 767.374 170.724 C 765.762 171.695 763.902 172.181 761.794 172.181 C 759.851 172.181 758.064 171.788 756.431 171.003 C 754.798 170.218 753.507 169.122 752.556 167.717 C 751.605 166.312 751.13 164.762 751.13 163.067 C 751.13 160.794 751.709 159.027 752.866 157.766 C 754.023 156.505 755.925 155.596 758.57 155.038 C 761.215 154.48 764.894 154.201 769.606 154.201 L 770.97 154.201 L 770.97 152.155 C 770.97 149.675 770.464 147.856 769.451 146.699 C 768.438 145.542 766.795 144.963 764.522 144.963 C 761.711 144.963 758.859 145.728 755.966 147.257 C 754.85 147.96 754.065 148.311 753.61 148.311 C 753.114 148.311 752.701 148.125 752.37 147.753 C 752.039 147.381 751.874 146.906 751.874 146.327 C 751.874 145.748 752.05 145.242 752.401 144.808 C 752.752 144.374 753.321 143.93 754.106 143.475 C 755.553 142.648 757.196 141.997 759.035 141.522 C 760.874 141.047 762.703 140.809 764.522 140.809 Z M 762.476 168.213 C 764.956 168.213 766.992 167.376 768.583 165.702 C 770.174 164.028 770.97 161.868 770.97 159.223 L 770.97 157.425 L 769.854 157.425 C 766.217 157.425 763.447 157.58 761.546 157.89 C 759.645 158.2 758.291 158.717 757.485 159.44 C 756.679 160.163 756.276 161.228 756.276 162.633 C 756.276 164.245 756.865 165.578 758.043 166.632 C 759.221 167.686 760.699 168.213 762.476 168.213 Z" style="fill-opacity: 1.0; white-space: pre;"/>
  <path d="M 800.233 140.809 C 802.878 140.809 805.214 141.47 807.239 142.793 C 809.264 144.116 810.835 145.965 811.951 148.342 C 813.067 150.719 813.625 153.478 813.625 156.619 C 813.625 159.76 813.067 162.499 811.951 164.834 C 810.835 167.169 809.275 168.978 807.27 170.259 C 805.265 171.54 802.92 172.181 800.233 172.181 C 797.877 172.181 795.821 171.664 794.064 170.631 C 792.307 169.598 790.974 168.13 790.065 166.229 L 790.065 180.799 C 790.065 181.543 789.848 182.132 789.414 182.566 C 788.98 183 788.37 183.217 787.585 183.217 C 786.8 183.217 786.18 182.99 785.725 182.535 C 785.27 182.08 785.043 181.502 785.043 180.799 L 785.043 143.413 C 785.043 142.669 785.27 142.07 785.725 141.615 C 786.18 141.16 786.8 140.933 787.585 140.933 C 788.37 140.933 788.98 141.16 789.414 141.615 C 789.848 142.07 790.065 142.669 790.065 143.413 L 790.065 146.761 C 790.974 144.86 792.307 143.392 794.064 142.359 C 795.821 141.326 797.877 140.809 800.233 140.809 Z M 799.241 168.027 C 802.176 168.027 804.449 167.035 806.061 165.051 C 807.673 163.067 808.479 160.256 808.479 156.619 C 808.479 152.982 807.673 150.14 806.061 148.094 C 804.449 146.048 802.176 145.025 799.241 145.025 C 796.306 145.025 794.043 146.017 792.452 148.001 C 790.861 149.985 790.065 152.816 790.065 156.495 C 790.065 160.174 790.861 163.015 792.452 165.02 C 794.043 167.025 796.306 168.027 799.241 168.027 Z" style="fill-opacity: 1.0; white-space: pre;"/>
  <path d="M 836.311 140.809 C 838.956 140.809 841.292 141.47 843.317 142.793 C 845.342 144.116 846.913 145.965 848.029 148.342 C 849.145 150.719 849.703 153.478 849.703 156.619 C 849.703 159.76 849.145 162.499 848.029 164.834 C 846.913 167.169 845.353 168.978 843.348 170.259 C 841.343 171.54 838.998 172.181 836.311 172.181 C 833.955 172.181 831.899 171.664 830.142 170.631 C 828.385 169.598 827.052 168.13 826.143 166.229 L 826.143 180.799 C 826.143 181.543 825.926 182.132 825.492 182.566 C 825.058 183 824.448 183.217 823.663 183.217 C 822.878 183.217 822.258 182.99 821.803 182.535 C 821.348 182.08 821.121 181.502 821.121 180.799 L 821.121 143.413 C 821.121 142.669 821.348 142.07 821.803 141.615 C 822.258 141.16 822.878 140.933 823.663 140.933 C 824.448 140.933 825.058 141.16 825.492 141.615 C 825.926 142.07 826.143 142.669 826.143 143.413 L 826.143 146.761 C 827.052 144.86 828.385 143.392 830.142 142.359 C 831.899 141.326 833.955 140.809 836.311 140.809 Z M 835.319 168.027 C 838.254 168.027 840.527 167.035 842.139 165.051 C 843.751 163.067 844.557 160.256 844.557 156.619 C 844.557 152.982 843.751 150.14 842.139 148.094 C 840.527 146.048 838.254 145.025 835.319 145.025 C 832.384 145.025 830.121 146.017 828.53 148.001 C 826.939 149.985 826.143 152.816 826.143 156.495 C 826.143 160.174 826.939 163.015 828.53 165.02 C 830.121 167.025 832.384 168.027 835.319 168.027 Z" style="fill-opacity: 1.0; white-space: pre;"/>
  <path d="M 859.749 172.057 C 859.005 172.057 858.395 171.84 857.92 171.406 C 857.445 170.972 857.207 170.362 857.207 169.577 L 857.207 130.207 C 857.207 129.422 857.445 128.812 857.92 128.378 C 858.395 127.944 859.005 127.727 859.749 127.727 C 860.452 127.727 861.041 127.944 861.516 128.378 C 861.991 128.812 862.229 129.422 862.229 130.207 L 862.229 169.577 C 862.229 170.362 861.991 170.972 861.516 171.406 C 861.041 171.84 860.452 172.057 859.749 172.057 Z" style="fill-opacity: 1.0; white-space: pre;"/>
  <path d="M 874.132 172.057 C 873.388 172.057 872.778 171.84 872.303 171.406 C 871.828 170.972 871.59 170.362 871.59 169.577 L 871.59 143.413 C 871.59 142.628 871.828 142.018 872.303 141.584 C 872.778 141.15 873.388 140.933 874.132 140.933 C 874.876 140.933 875.475 141.15 875.93 141.584 C 876.385 142.018 876.612 142.628 876.612 143.413 L 876.612 169.577 C 876.612 170.404 876.385 171.024 875.93 171.437 C 875.475 171.85 874.876 172.057 874.132 172.057 Z M 874.132 134.423 C 873.14 134.423 872.334 134.134 871.714 133.555 C 871.094 132.976 870.784 132.212 870.784 131.261 C 870.784 130.352 871.094 129.608 871.714 129.029 C 872.334 128.45 873.14 128.161 874.132 128.161 C 875.124 128.161 875.93 128.45 876.55 129.029 C 877.17 129.608 877.48 130.352 877.48 131.261 C 877.48 132.212 877.17 132.976 876.55 133.555 C 875.93 134.134 875.124 134.423 874.132 134.423 Z" style="fill-opacity: 1.0; white-space: pre;"/>
  <path d="M 898.435 172.181 C 895.624 172.181 893.134 171.54 890.964 170.259 C 888.794 168.978 887.12 167.159 885.942 164.803 C 884.764 162.447 884.175 159.719 884.175 156.619 C 884.175 153.519 884.785 150.77 886.004 148.373 C 887.223 145.976 888.928 144.116 891.119 142.793 C 893.31 141.47 895.831 140.809 898.683 140.809 C 900.254 140.809 901.814 141.026 903.364 141.46 C 904.914 141.894 906.268 142.524 907.425 143.351 C 908.169 143.847 908.696 144.333 909.006 144.808 C 909.316 145.283 909.471 145.81 909.471 146.389 C 909.471 146.968 909.316 147.443 909.006 147.815 C 908.696 148.187 908.293 148.373 907.797 148.373 C 907.508 148.373 907.198 148.29 906.867 148.125 C 906.536 147.96 906.257 147.794 906.03 147.629 C 905.803 147.464 905.648 147.36 905.565 147.319 C 904.49 146.616 903.467 146.058 902.496 145.645 C 901.525 145.232 900.336 145.025 898.931 145.025 C 895.914 145.025 893.568 146.048 891.894 148.094 C 890.22 150.14 889.383 152.982 889.383 156.619 C 889.383 160.256 890.22 163.067 891.894 165.051 C 893.568 167.035 895.914 168.027 898.931 168.027 C 900.336 168.027 901.545 167.82 902.558 167.407 C 903.571 166.994 904.594 166.436 905.627 165.733 C 906.082 165.444 906.516 165.196 906.929 164.989 C 907.342 164.782 907.694 164.679 907.983 164.679 C 908.438 164.679 908.82 164.865 909.13 165.237 C 909.44 165.609 909.595 166.084 909.595 166.663 C 909.595 167.2 909.45 167.686 909.161 168.12 C 908.872 168.554 908.334 169.04 907.549 169.577 C 906.392 170.362 904.997 170.993 903.364 171.468 C 901.731 171.943 900.088 172.181 898.435 172.181 Z" style="fill-opacity: 1.0; white-space: pre;"/>
  <path d="M 928.014 140.809 C 935.578 140.809 939.36 144.777 939.36 152.713 L 939.36 169.577 C 939.36 170.321 939.143 170.92 938.709 171.375 C 938.275 171.83 937.686 172.057 936.942 172.057 C 936.198 172.057 935.599 171.83 935.144 171.375 C 934.689 170.92 934.462 170.321 934.462 169.577 L 934.462 166.601 C 933.677 168.378 932.478 169.753 930.866 170.724 C 929.254 171.695 927.394 172.181 925.286 172.181 C 923.343 172.181 921.556 171.788 919.923 171.003 C 918.29 170.218 916.999 169.122 916.048 167.717 C 915.097 166.312 914.622 164.762 914.622 163.067 C 914.622 160.794 915.201 159.027 916.358 157.766 C 917.515 156.505 919.417 155.596 922.062 155.038 C 924.707 154.48 928.386 154.201 933.098 154.201 L 934.462 154.201 L 934.462 152.155 C 934.462 149.675 933.956 147.856 932.943 146.699 C 931.93 145.542 930.287 144.963 928.014 144.963 C 925.203 144.963 922.351 145.728 919.458 147.257 C 918.342 147.96 917.557 148.311 917.102 148.311 C 916.606 148.311 916.193 148.125 915.862 147.753 C 915.531 147.381 915.366 146.906 915.366 146.327 C 915.366 145.748 915.542 145.242 915.893 144.808 C 916.244 144.374 916.813 143.93 917.598 143.475 C 919.045 142.648 920.688 141.997 922.527 141.522 C 924.366 141.047 926.195 140.809 928.014 140.809 Z M 925.968 168.213 C 928.448 168.213 930.484 167.376 932.075 165.702 C 933.666 164.028 934.462 161.868 934.462 159.223 L 934.462 157.425 L 933.346 157.425 C 929.709 157.425 926.939 157.58 925.038 157.89 C 923.137 158.2 921.783 158.717 920.977 159.44 C 920.171 160.163 919.768 161.228 919.768 162.633 C 919.768 164.245 920.357 165.578 921.535 166.632 C 922.713 167.686 924.191 168.213 925.968 168.213 Z" style="fill-opacity: 1.0; white-space: pre;"/>
  <path d="M 962.486 168.089 C 963.933 168.213 964.656 168.874 964.656 170.073 C 964.656 170.776 964.398 171.303 963.881 171.654 C 963.364 172.005 962.589 172.14 961.556 172.057 L 959.882 171.933 C 956.575 171.685 954.137 170.693 952.566 168.957 C 950.995 167.221 950.21 164.596 950.21 161.083 L 950.21 145.521 L 946.056 145.521 C 945.353 145.521 944.806 145.345 944.413 144.994 C 944.02 144.643 943.824 144.178 943.824 143.599 C 943.824 142.979 944.02 142.483 944.413 142.111 C 944.806 141.739 945.353 141.553 946.056 141.553 L 950.21 141.553 L 950.21 134.547 C 950.21 133.762 950.437 133.152 950.892 132.718 C 951.347 132.284 951.967 132.067 952.752 132.067 C 953.496 132.067 954.095 132.284 954.55 132.718 C 955.005 133.152 955.232 133.762 955.232 134.547 L 955.232 141.553 L 962.114 141.553 C 962.775 141.553 963.302 141.739 963.695 142.111 C 964.088 142.483 964.284 142.979 964.284 143.599 C 964.284 144.178 964.088 144.643 963.695 144.994 C 963.302 145.345 962.775 145.521 962.114 145.521 L 955.232 145.521 L 955.232 161.331 C 955.232 163.604 955.697 165.247 956.627 166.26 C 957.557 167.273 958.952 167.841 960.812 167.965 L 962.486 168.089 Z" style="fill-opacity: 1.0; white-space: pre;"/>
  <path d="M 972.156 172.057 C 971.412 172.057 970.802 171.84 970.327 171.406 C 969.852 170.972 969.614 170.362 969.614 169.577 L 969.614 143.413 C 969.614 142.628 969.852 142.018 970.327 141.584 C 970.802 141.15 971.412 140.933 972.156 140.933 C 972.9 140.933 973.499 141.15 973.954 141.584 C 974.409 142.018 974.636 142.628 974.636 143.413 L 974.636 169.577 C 974.636 170.404 974.409 171.024 973.954 171.437 C 973.499 171.85 972.9 172.057 972.156 172.057 Z M 972.156 134.423 C 971.164 134.423 970.358 134.134 969.738 133.555 C 969.118 132.976 968.808 132.212 968.808 131.261 C 968.808 130.352 969.118 129.608 969.738 129.029 C 970.358 128.45 971.164 128.161 972.156 128.161 C 973.148 128.161 973.954 128.45 974.574 129.029 C 975.194 129.608 975.504 130.352 975.504 131.261 C 975.504 132.212 975.194 132.976 974.574 133.555 C 973.954 134.134 973.148 134.423 972.156 134.423 Z" style="fill-opacity: 1.0; white-space: pre;"/>
  <path d="M 996.52 172.181 C 993.668 172.181 991.157 171.54 988.987 170.259 C 986.817 168.978 985.143 167.149 983.965 164.772 C 982.787 162.395 982.198 159.636 982.198 156.495 C 982.198 153.354 982.787 150.595 983.965 148.218 C 985.143 145.841 986.817 144.012 988.987 142.731 C 991.157 141.45 993.668 140.809 996.52 140.809 C 999.372 140.809 1001.893 141.45 1004.084 142.731 C 1006.275 144.012 1007.959 145.841 1009.137 148.218 C 1010.315 150.595 1010.904 153.354 1010.904 156.495 C 1010.904 159.636 1010.315 162.395 1009.137 164.772 C 1007.959 167.149 1006.275 168.978 1004.084 170.259 C 1001.893 171.54 999.372 172.181 996.52 172.181 Z M 996.52 168.027 C 999.496 168.027 1001.78 167.045 1003.371 165.082 C 1004.962 163.119 1005.758 160.256 1005.758 156.495 C 1005.758 152.816 1004.952 149.975 1003.34 147.97 C 1001.728 145.965 999.455 144.963 996.52 144.963 C 993.585 144.963 991.312 145.965 989.7 147.97 C 988.088 149.975 987.282 152.816 987.282 156.495 C 987.282 160.215 988.078 163.067 989.669 165.051 C 991.26 167.035 993.544 168.027 996.52 168.027 Z" style="fill-opacity: 1.0; white-space: pre;"/>
  <path d="M 1033.601 140.809 C 1040.834 140.809 1044.451 144.798 1044.451 152.775 L 1044.451 169.577 C 1044.451 170.362 1044.234 170.972 1043.8 171.406 C 1043.366 171.84 1042.756 172.057 1041.971 172.057 C 1041.186 172.057 1040.566 171.84 1040.111 171.406 C 1039.656 170.972 1039.429 170.362 1039.429 169.577 L 1039.429 153.085 C 1039.429 150.274 1038.881 148.228 1037.786 146.947 C 1036.691 145.666 1034.944 145.025 1032.547 145.025 C 1029.778 145.025 1027.566 145.872 1025.913 147.567 C 1024.26 149.262 1023.433 151.556 1023.433 154.449 L 1023.433 169.577 C 1023.433 170.362 1023.216 170.972 1022.782 171.406 C 1022.348 171.84 1021.738 172.057 1020.953 172.057 C 1020.168 172.057 1019.548 171.84 1019.093 171.406 C 1018.638 170.972 1018.411 170.362 1018.411 169.577 L 1018.411 143.413 C 1018.411 142.669 1018.638 142.07 1019.093 141.615 C 1019.548 141.16 1020.168 140.933 1020.953 140.933 C 1021.697 140.933 1022.286 141.16 1022.72 141.615 C 1023.154 142.07 1023.371 142.648 1023.371 143.351 L 1023.371 146.513 C 1024.363 144.653 1025.748 143.237 1027.525 142.266 C 1029.302 141.295 1031.328 140.809 1033.601 140.809 Z" style="fill-opacity: 1.0; white-space: pre;"/>
</svg>