<?xml version="1.0" encoding="utf-8"?>
<svg viewBox="0 0 1050 190" xmlns="http://www.w3.org/2000/svg">
  <defs>
    <radialGradient id="gradient-1" gradientUnits="userSpaceOnUse" cx="152.286" cy="126.898" r="330" gradientTransform="matrix(0.638467, -1.091841, 1.097297, 0.641658, 52.727183, 218.434182)">
      <stop offset="0" style="stop-color: rgb(0, 170, 237);"/>
      <stop offset="1" style="stop-color: rgb(0, 145, 202);"/>
    </radialGradient>
    <linearGradient id="gradient-0" gradientUnits="userSpaceOnUse" x1="330" y1="0" x2="330" y2="660" gradientTransform="matrix(0.980745, -0.195296, 0.195753, 0.983035, -58.663244, 70.697931)">
      <stop offset="0" style="stop-color: rgb(152, 226, 255);"/>
      <stop offset="1" style="stop-color: rgb(78, 193, 239);"/>
    </linearGradient>
  </defs>
  <g transform="matrix(0.276515, 0, 0, 0.276515, 4, 3.750038)">
    <g>
      <circle style="fill: url(#gradient-1); stroke: url(#gradient-0); stroke-width: 20px;" cx="330" cy="330" r="330"/>
      <g transform="matrix(1, 0, 0, 1, 76.243515, 77.183487)">
        <circle style="fill: rgb(255, 255, 255); stroke: rgb(152, 226, 255); stroke-width: 20px;" cx="254.358" cy="253.337" r="75"/>
        <circle style="fill: rgb(212, 243, 255); stroke: rgb(99, 211, 255); stroke-width: 20px;" cx="215.084" cy="54.739" r="57.5"/>
        <circle style="stroke: rgb(78, 193, 239); fill: rgb(179, 233, 255); stroke-width: 20px;" cx="63.26" cy="186.66" r="42.5"/>
        <circle style="stroke: rgb(78, 193, 239); fill: rgb(179, 233, 255); stroke-width: 20px;" cx="405.584" cy="120.172" r="42.5"/>
        <circle style="stroke: rgb(78, 193, 239); fill: rgb(179, 233, 255); stroke-width: 20px;" cx="444.253" cy="318.582" r="42.5"/>
        <circle style="stroke: rgb(78, 193, 239); fill: rgb(179, 233, 255); stroke-width: 20px;" cx="101.614" cy="385.13" r="42.5"/>
        <circle style="fill: rgb(212, 243, 255); stroke: rgb(99, 211, 255); stroke-width: 20px;" cx="291.529" cy="450.894" r="57.5"/>
      </g>
    </g>
  </g>
  <path d="M 267.066 103.245 Q 268.43 103.245 269.422 104.361 Q 270.414 105.477 270.414 107.213 Q 270.414 110.313 266.074 112.917 Q 261.61 115.521 256.65 116.823 Q 251.69 118.125 246.978 118.125 Q 232.966 118.125 224.844 109.817 Q 216.722 101.509 216.722 86.877 Q 216.722 77.577 220.318 70.447 Q 223.914 63.317 230.424 59.349 Q 236.934 55.381 245.242 55.381 Q 257.022 55.381 263.966 63.069 Q 270.91 70.757 270.91 83.901 Q 270.91 86.381 269.918 87.497 Q 268.926 88.613 266.694 88.613 L 226.766 88.613 Q 227.882 109.941 246.978 109.941 Q 251.814 109.941 255.286 108.639 Q 258.758 107.337 262.726 105.105 Q 265.95 103.245 267.066 103.245 Z M 245.366 63.193 Q 237.43 63.193 232.656 68.153 Q 227.882 73.113 227.014 82.165 L 262.106 82.165 Q 261.858 72.989 257.518 68.091 Q 253.178 63.193 245.366 63.193 Z M 310.337 55.381 Q 333.029 55.381 333.029 79.189 L 333.029 112.917 Q 333.029 115.149 331.727 116.513 Q 330.425 117.877 328.193 117.877 Q 325.961 117.877 324.597 116.513 Q 323.233 115.149 323.233 112.917 L 323.233 106.965 Q 320.877 112.297 316.041 115.211 Q 311.205 118.125 304.881 118.125 Q 299.053 118.125 294.155 115.769 Q 289.257 113.413 286.405 109.197 Q 283.553 104.981 283.553 99.897 Q 283.553 93.077 287.025 89.295 Q 290.497 85.513 298.433 83.839 Q 306.369 82.165 320.505 82.165 L 323.233 82.165 L 323.233 78.073 Q 323.233 70.633 320.195 67.161 Q 317.157 63.689 310.337 63.689 Q 301.905 63.689 293.225 68.277 Q 289.877 70.385 288.513 70.385 Q 287.025 70.385 286.033 69.269 Q 285.041 68.153 285.041 66.417 Q 285.041 64.681 286.095 63.379 Q 287.149 62.077 289.505 60.713 Q 293.845 58.233 299.363 56.807 Q 304.881 55.381 310.337 55.381 Z M 306.245 110.189 Q 313.685 110.189 318.459 105.167 Q 323.233 100.145 323.233 92.209 L 323.233 88.613 L 321.001 88.613 Q 310.089 88.613 304.385 89.543 Q 298.681 90.473 296.263 92.643 Q 293.845 94.813 293.845 99.029 Q 293.845 103.865 297.379 107.027 Q 300.913 110.189 306.245 110.189 Z M 371.718 118.125 Q 366.014 118.125 360.868 116.761 Q 355.722 115.397 351.754 112.917 Q 349.522 111.429 348.592 110.127 Q 347.662 108.825 347.662 106.965 Q 347.662 105.353 348.592 104.299 Q 349.522 103.245 351.01 103.245 Q 352.498 103.245 355.35 105.105 Q 359.07 107.337 362.728 108.639 Q 366.386 109.941 371.842 109.941 Q 378.538 109.941 382.258 107.585 Q 385.978 105.229 385.978 100.765 Q 385.978 98.037 384.614 96.363 Q 383.25 94.689 379.902 93.387 Q 376.554 92.085 370.106 90.721 Q 359.194 88.365 354.482 84.397 Q 349.77 80.429 349.77 73.609 Q 349.77 68.277 352.746 64.185 Q 355.722 60.093 360.992 57.737 Q 366.262 55.381 372.958 55.381 Q 377.794 55.381 382.32 56.683 Q 386.846 57.985 390.318 60.341 Q 394.534 63.317 394.534 66.541 Q 394.534 68.153 393.542 69.269 Q 392.55 70.385 391.186 70.385 Q 389.698 70.385 386.722 68.277 Q 383.25 66.045 380.15 64.805 Q 377.05 63.565 372.462 63.565 Q 366.634 63.565 363.1 66.169 Q 359.566 68.773 359.566 73.113 Q 359.566 75.841 360.868 77.515 Q 362.17 79.189 365.208 80.491 Q 368.246 81.793 373.95 83.033 Q 382.382 84.893 387.032 87.125 Q 391.682 89.357 393.666 92.581 Q 395.65 95.805 395.65 100.765 Q 395.65 108.577 389.078 113.351 Q 382.506 118.125 371.718 118.125 Z M 453.307 58.729 Q 454.671 55.753 457.647 55.753 Q 459.507 55.753 460.995 56.993 Q 462.483 58.233 462.483 60.093 Q 462.483 61.209 461.987 62.077 L 427.143 137.221 Q 426.523 138.585 425.345 139.329 Q 424.167 140.073 422.927 140.073 Q 421.067 140.073 419.641 138.895 Q 418.215 137.717 418.215 135.857 Q 418.215 134.865 418.711 133.873 L 427.391 115.149 L 402.839 62.077 Q 402.343 61.209 402.343 60.217 Q 402.343 58.357 404.017 56.993 Q 405.691 55.629 407.675 55.629 Q 408.915 55.629 410.093 56.373 Q 411.271 57.117 411.891 58.481 L 432.599 104.981 L 453.307 58.729 Z" style="fill: rgb(163, 163, 163);"/>
  <path d="M 522.874 29.217 Q 526.346 29.217 528.578 31.201 Q 530.81 33.185 530.81 36.409 L 530.81 110.561 Q 530.81 113.909 528.702 115.893 Q 526.594 117.877 523.122 117.877 Q 519.65 117.877 517.542 115.893 Q 515.434 113.909 515.434 110.561 L 515.434 107.461 Q 512.706 112.545 507.56 115.397 Q 502.414 118.249 495.842 118.249 Q 488.03 118.249 481.892 114.281 Q 475.754 110.313 472.344 103.059 Q 468.934 95.805 468.934 86.381 Q 468.934 76.957 472.344 69.889 Q 475.754 62.821 481.83 58.977 Q 487.906 55.133 495.842 55.133 Q 502.414 55.133 507.498 57.861 Q 512.582 60.589 515.31 65.549 L 515.31 36.161 Q 515.31 33.061 517.356 31.139 Q 519.402 29.217 522.874 29.217 Z M 499.934 106.221 Q 507.374 106.221 511.404 101.137 Q 515.434 96.053 515.434 86.629 Q 515.434 77.205 511.404 72.183 Q 507.374 67.161 500.058 67.161 Q 492.618 67.161 488.526 72.121 Q 484.434 77.081 484.434 86.381 Q 484.434 95.805 488.526 101.013 Q 492.618 106.221 499.934 106.221 Z M 554.489 118.001 Q 551.141 118.001 548.971 116.079 Q 546.801 114.157 546.801 110.561 L 546.801 62.697 Q 546.801 59.101 548.971 57.241 Q 551.141 55.381 554.489 55.381 Q 557.837 55.381 560.069 57.241 Q 562.301 59.101 562.301 62.697 L 562.301 110.561 Q 562.301 114.157 560.069 116.079 Q 557.837 118.001 554.489 118.001 Z M 554.489 44.345 Q 550.273 44.345 547.793 42.051 Q 545.313 39.757 545.313 36.037 Q 545.313 32.317 547.793 30.085 Q 550.273 27.853 554.489 27.853 Q 558.581 27.853 561.123 30.085 Q 563.665 32.317 563.665 36.037 Q 563.665 39.757 561.185 42.051 Q 558.705 44.345 554.489 44.345 Z M 608.926 41.369 Q 603.222 41.741 600.618 44.841 Q 598.014 47.941 598.014 53.769 L 598.014 56.621 L 608.554 56.621 Q 615.498 56.621 615.498 62.449 Q 615.498 68.277 608.554 68.277 L 598.014 68.277 L 598.014 110.561 Q 598.014 114.157 595.844 116.017 Q 593.674 117.877 590.326 117.877 Q 586.978 117.877 584.746 116.017 Q 582.514 114.157 582.514 110.561 L 582.514 68.277 L 576.314 68.277 Q 569.37 68.277 569.37 62.449 Q 569.37 56.621 576.314 56.621 L 582.514 56.621 L 582.514 55.753 Q 582.514 44.097 588.652 37.463 Q 594.79 30.829 605.95 29.961 L 609.174 29.713 Q 614.134 29.341 616.18 30.767 Q 618.226 32.193 618.226 35.169 Q 618.226 40.501 612.15 41.121 L 608.926 41.369 Z M 652.2 41.369 Q 646.496 41.741 643.892 44.841 Q 641.288 47.941 641.288 53.769 L 641.288 56.621 L 651.828 56.621 Q 658.772 56.621 658.772 62.449 Q 658.772 68.277 651.828 68.277 L 641.288 68.277 L 641.288 110.561 Q 641.288 114.157 639.118 116.017 Q 636.948 117.877 633.6 117.877 Q 630.252 117.877 628.02 116.017 Q 625.788 114.157 625.788 110.561 L 625.788 68.277 L 619.588 68.277 Q 612.644 68.277 612.644 62.449 Q 612.644 56.621 619.588 56.621 L 625.788 56.621 L 625.788 55.753 Q 625.788 44.097 631.926 37.463 Q 638.064 30.829 649.224 29.961 L 652.448 29.713 Q 657.408 29.341 659.454 30.767 Q 661.5 32.193 661.5 35.169 Q 661.5 40.501 655.424 41.121 L 652.2 41.369 Z M 699.814 55.381 Q 703.038 55.133 704.898 56.745 Q 706.758 58.357 706.758 61.581 Q 706.758 64.929 705.146 66.541 Q 703.534 68.153 699.318 68.649 L 695.598 69.021 Q 688.282 69.765 684.872 73.981 Q 681.462 78.197 681.462 84.521 L 681.462 110.561 Q 681.462 114.157 679.23 116.079 Q 676.998 118.001 673.65 118.001 Q 670.302 118.001 668.132 116.079 Q 665.962 114.157 665.962 110.561 L 665.962 62.573 Q 665.962 59.101 668.132 57.241 Q 670.302 55.381 673.526 55.381 Q 676.75 55.381 678.734 57.179 Q 680.718 58.977 680.718 62.325 L 680.718 67.285 Q 683.074 61.829 687.724 58.853 Q 692.374 55.877 698.078 55.505 L 699.814 55.381 Z M 739.493 55.133 Q 752.141 55.133 758.279 61.395 Q 764.417 67.657 764.417 80.429 L 764.417 110.685 Q 764.417 114.033 762.433 115.955 Q 760.449 117.877 756.977 117.877 Q 753.753 117.877 751.707 115.893 Q 749.661 113.909 749.661 110.685 L 749.661 107.957 Q 747.553 112.793 743.027 115.521 Q 738.501 118.249 732.549 118.249 Q 726.473 118.249 721.513 115.769 Q 716.553 113.289 713.701 108.949 Q 710.849 104.609 710.849 99.277 Q 710.849 92.581 714.259 88.737 Q 717.669 84.893 725.357 83.157 Q 733.045 81.421 746.561 81.421 L 749.661 81.421 L 749.661 78.569 Q 749.661 72.493 747.057 69.703 Q 744.453 66.913 738.625 66.913 Q 735.029 66.913 731.309 67.967 Q 727.589 69.021 722.505 71.005 Q 719.281 72.617 717.793 72.617 Q 715.561 72.617 714.135 71.005 Q 712.709 69.393 712.709 66.789 Q 712.709 64.681 713.763 63.131 Q 714.817 61.581 717.297 60.217 Q 721.637 57.861 727.651 56.497 Q 733.665 55.133 739.493 55.133 Z M 735.649 107.089 Q 741.849 107.089 745.755 102.935 Q 749.661 98.781 749.661 92.209 L 749.661 89.605 L 747.429 89.605 Q 739.121 89.605 734.533 90.349 Q 729.945 91.093 727.961 92.953 Q 725.977 94.813 725.977 98.037 Q 725.977 102.005 728.767 104.547 Q 731.557 107.089 735.649 107.089 Z M 807.071 118.249 Q 798.019 118.249 791.137 114.405 Q 784.255 110.561 780.535 103.493 Q 776.815 96.425 776.815 87.001 Q 776.815 77.577 780.721 70.323 Q 784.627 63.069 791.695 59.101 Q 798.763 55.133 807.939 55.133 Q 812.775 55.133 817.673 56.497 Q 822.571 57.861 826.291 60.217 Q 830.259 62.821 830.259 66.789 Q 830.259 69.517 828.957 71.191 Q 827.655 72.865 825.547 72.865 Q 824.183 72.865 822.695 72.245 Q 821.207 71.625 819.719 70.757 Q 816.991 69.145 814.511 68.215 Q 812.031 67.285 808.807 67.285 Q 801.119 67.285 796.965 72.307 Q 792.811 77.329 792.811 86.753 Q 792.811 96.053 796.965 101.075 Q 801.119 106.097 808.807 106.097 Q 811.907 106.097 814.325 105.167 Q 816.743 104.237 819.719 102.625 Q 821.579 101.509 822.943 100.951 Q 824.307 100.393 825.671 100.393 Q 827.655 100.393 829.019 102.129 Q 830.383 103.865 830.383 106.469 Q 830.383 108.577 829.453 110.127 Q 828.523 111.677 826.415 112.917 Q 822.571 115.397 817.487 116.823 Q 812.403 118.249 807.071 118.249 Z M 872.546 106.469 Q 878.746 106.841 878.746 112.049 Q 878.746 115.025 876.328 116.575 Q 873.91 118.125 869.446 117.877 L 866.098 117.629 Q 845.266 116.141 845.266 95.309 L 845.266 68.277 L 839.066 68.277 Q 835.718 68.277 833.92 66.789 Q 832.122 65.301 832.122 62.449 Q 832.122 59.597 833.92 58.109 Q 835.718 56.621 839.066 56.621 L 845.266 56.621 L 845.266 45.213 Q 845.266 41.865 847.374 39.881 Q 849.482 37.897 853.078 37.897 Q 856.55 37.897 858.658 39.881 Q 860.766 41.865 860.766 45.213 L 860.766 56.621 L 871.306 56.621 Q 874.654 56.621 876.452 58.109 Q 878.25 59.597 878.25 62.449 Q 878.25 65.301 876.452 66.789 Q 874.654 68.277 871.306 68.277 L 860.766 68.277 L 860.766 96.425 Q 860.766 105.601 869.198 106.221 L 872.546 106.469 Z M 894.492 118.001 Q 891.144 118.001 888.974 116.079 Q 886.804 114.157 886.804 110.561 L 886.804 62.697 Q 886.804 59.101 888.974 57.241 Q 891.144 55.381 894.492 55.381 Q 897.84 55.381 900.072 57.241 Q 902.304 59.101 902.304 62.697 L 902.304 110.561 Q 902.304 114.157 900.072 116.079 Q 897.84 118.001 894.492 118.001 Z M 894.492 44.345 Q 890.276 44.345 887.796 42.051 Q 885.316 39.757 885.316 36.037 Q 885.316 32.317 887.796 30.085 Q 890.276 27.853 894.492 27.853 Q 898.584 27.853 901.126 30.085 Q 903.668 32.317 903.668 36.037 Q 903.668 39.757 901.188 42.051 Q 898.708 44.345 894.492 44.345 Z M 945.953 118.249 Q 936.653 118.249 929.647 114.405 Q 922.641 110.561 918.797 103.369 Q 914.953 96.177 914.953 86.629 Q 914.953 77.081 918.797 69.951 Q 922.641 62.821 929.647 58.977 Q 936.653 55.133 945.953 55.133 Q 955.253 55.133 962.259 58.977 Q 969.265 62.821 973.047 69.951 Q 976.829 77.081 976.829 86.629 Q 976.829 96.177 973.047 103.369 Q 969.265 110.561 962.259 114.405 Q 955.253 118.249 945.953 118.249 Z M 945.829 106.221 Q 953.393 106.221 957.361 101.261 Q 961.329 96.301 961.329 86.629 Q 961.329 77.081 957.361 72.059 Q 953.393 67.037 945.953 67.037 Q 938.513 67.037 934.483 72.059 Q 930.453 77.081 930.453 86.629 Q 930.453 96.301 934.421 101.261 Q 938.389 106.221 945.829 106.221 Z M 1024.811 55.133 Q 1035.723 55.133 1041.055 61.333 Q 1046.387 67.533 1046.387 80.057 L 1046.387 110.561 Q 1046.387 114.033 1044.341 116.017 Q 1042.295 118.001 1038.699 118.001 Q 1035.103 118.001 1032.995 116.017 Q 1030.887 114.033 1030.887 110.561 L 1030.887 80.925 Q 1030.887 73.857 1028.221 70.633 Q 1025.555 67.409 1019.851 67.409 Q 1013.155 67.409 1009.125 71.625 Q 1005.095 75.841 1005.095 82.909 L 1005.095 110.561 Q 1005.095 114.033 1002.987 116.017 Q 1000.879 118.001 997.283 118.001 Q 993.687 118.001 991.641 116.017 Q 989.595 114.033 989.595 110.561 L 989.595 62.573 Q 989.595 59.349 991.703 57.365 Q 993.811 55.381 997.407 55.381 Q 1000.631 55.381 1002.677 57.303 Q 1004.723 59.225 1004.723 62.325 L 1004.723 65.673 Q 1007.823 60.589 1013.031 57.861 Q 1018.239 55.133 1024.811 55.133 Z" style="fill: rgb(163, 163, 163);"/>
  <path d="M 666.468 176.057 Q 665.29 176.057 664.608 175.344 Q 663.926 174.631 663.926 173.453 L 663.926 134.517 Q 663.926 133.401 664.639 132.719 Q 665.352 132.037 666.53 132.037 L 681.224 132.037 Q 688.106 132.037 691.919 135.385 Q 695.732 138.733 695.732 144.871 Q 695.732 151.009 691.888 154.419 Q 688.044 157.829 681.224 157.829 L 669.01 157.829 L 669.01 173.453 Q 669.01 174.631 668.328 175.344 Q 667.646 176.057 666.468 176.057 Z M 680.728 153.613 Q 690.71 153.613 690.71 144.871 Q 690.71 136.253 680.728 136.253 L 669.01 136.253 L 669.01 153.613 Z M 724.993 146.483 Q 725.675 144.995 727.163 144.995 Q 728.093 144.995 728.837 145.615 Q 729.581 146.235 729.581 147.165 Q 729.581 147.723 729.333 148.157 L 711.911 185.729 Q 711.601 186.411 711.012 186.783 Q 710.423 187.155 709.803 187.155 Q 708.873 187.155 708.16 186.566 Q 707.447 185.977 707.447 185.047 Q 707.447 184.551 707.695 184.055 L 712.035 174.693 L 699.759 148.157 Q 699.511 147.723 699.511 147.227 Q 699.511 146.297 700.348 145.615 Q 701.185 144.933 702.177 144.933 Q 702.797 144.933 703.386 145.305 Q 703.975 145.677 704.285 146.359 L 714.639 169.609 L 724.993 146.483 Z M 749.729 172.089 Q 751.899 172.275 751.899 174.073 Q 751.899 175.127 751.124 175.654 Q 750.349 176.181 748.799 176.057 L 747.125 175.933 Q 742.165 175.561 739.809 172.957 Q 737.453 170.353 737.453 165.083 L 737.453 149.521 L 733.299 149.521 Q 732.245 149.521 731.656 148.994 Q 731.067 148.467 731.067 147.599 Q 731.067 146.669 731.656 146.111 Q 732.245 145.553 733.299 145.553 L 737.453 145.553 L 737.453 138.547 Q 737.453 137.369 738.135 136.718 Q 738.817 136.067 739.995 136.067 Q 741.111 136.067 741.793 136.718 Q 742.475 137.369 742.475 138.547 L 742.475 145.553 L 749.357 145.553 Q 750.349 145.553 750.938 146.111 Q 751.527 146.669 751.527 147.599 Q 751.527 148.467 750.938 148.994 Q 750.349 149.521 749.357 149.521 L 742.475 149.521 L 742.475 165.331 Q 742.475 168.741 743.87 170.26 Q 745.265 171.779 748.055 171.965 L 749.729 172.089 Z M 772.109 144.809 Q 777.441 144.809 780.169 147.816 Q 782.897 150.823 782.897 156.775 L 782.897 173.577 Q 782.897 174.755 782.215 175.406 Q 781.533 176.057 780.417 176.057 Q 779.239 176.057 778.557 175.406 Q 777.875 174.755 777.875 173.577 L 777.875 156.899 Q 777.875 152.869 776.232 150.947 Q 774.589 149.025 770.993 149.025 Q 766.839 149.025 764.359 151.567 Q 761.879 154.109 761.879 158.449 L 761.879 173.577 Q 761.879 174.755 761.228 175.406 Q 760.577 176.057 759.399 176.057 Q 758.221 176.057 757.539 175.406 Q 756.857 174.755 756.857 173.577 L 756.857 134.145 Q 756.857 133.091 757.57 132.409 Q 758.283 131.727 759.399 131.727 Q 760.577 131.727 761.228 132.378 Q 761.879 133.029 761.879 134.145 L 761.879 150.389 Q 763.367 147.661 766.033 146.235 Q 768.699 144.809 772.109 144.809 Z M 804.596 176.181 Q 800.318 176.181 797.063 174.259 Q 793.808 172.337 792.041 168.772 Q 790.274 165.207 790.274 160.495 Q 790.274 155.783 792.041 152.218 Q 793.808 148.653 797.063 146.731 Q 800.318 144.809 804.596 144.809 Q 808.874 144.809 812.16 146.731 Q 815.446 148.653 817.213 152.218 Q 818.98 155.783 818.98 160.495 Q 818.98 165.207 817.213 168.772 Q 815.446 172.337 812.16 174.259 Q 808.874 176.181 804.596 176.181 Z M 804.596 172.027 Q 809.06 172.027 811.447 169.082 Q 813.834 166.137 813.834 160.495 Q 813.834 154.977 811.416 151.97 Q 808.998 148.963 804.596 148.963 Q 800.194 148.963 797.776 151.97 Q 795.358 154.977 795.358 160.495 Q 795.358 166.075 797.745 169.051 Q 800.132 172.027 804.596 172.027 Z M 841.666 144.809 Q 852.516 144.809 852.516 156.775 L 852.516 173.577 Q 852.516 174.755 851.865 175.406 Q 851.214 176.057 850.036 176.057 Q 848.858 176.057 848.176 175.406 Q 847.494 174.755 847.494 173.577 L 847.494 157.085 Q 847.494 152.869 845.851 150.947 Q 844.208 149.025 840.612 149.025 Q 836.458 149.025 833.978 151.567 Q 831.498 154.109 831.498 158.449 L 831.498 173.577 Q 831.498 174.755 830.847 175.406 Q 830.196 176.057 829.018 176.057 Q 827.84 176.057 827.158 175.406 Q 826.476 174.755 826.476 173.577 L 826.476 147.413 Q 826.476 146.297 827.158 145.615 Q 827.84 144.933 829.018 144.933 Q 830.134 144.933 830.785 145.615 Q 831.436 146.297 831.436 147.351 L 831.436 150.513 Q 832.924 147.723 835.59 146.266 Q 838.256 144.809 841.666 144.809 Z M 880.23 176.057 Q 879.114 176.057 878.401 175.406 Q 877.688 174.755 877.688 173.577 L 877.688 134.207 Q 877.688 133.029 878.401 132.378 Q 879.114 131.727 880.23 131.727 Q 881.284 131.727 881.997 132.378 Q 882.71 133.029 882.71 134.207 L 882.71 173.577 Q 882.71 174.755 881.997 175.406 Q 881.284 176.057 880.23 176.057 Z M 894.613 176.057 Q 893.497 176.057 892.784 175.406 Q 892.071 174.755 892.071 173.577 L 892.071 147.413 Q 892.071 146.235 892.784 145.584 Q 893.497 144.933 894.613 144.933 Q 895.729 144.933 896.411 145.584 Q 897.093 146.235 897.093 147.413 L 897.093 173.577 Q 897.093 174.817 896.411 175.437 Q 895.729 176.057 894.613 176.057 Z M 894.613 138.423 Q 893.125 138.423 892.195 137.555 Q 891.265 136.687 891.265 135.261 Q 891.265 133.897 892.195 133.029 Q 893.125 132.161 894.613 132.161 Q 896.101 132.161 897.031 133.029 Q 897.961 133.897 897.961 135.261 Q 897.961 136.687 897.031 137.555 Q 896.101 138.423 894.613 138.423 Z M 921.643 144.809 Q 925.611 144.809 928.649 146.731 Q 931.687 148.653 933.361 152.187 Q 935.035 155.721 935.035 160.371 Q 935.035 165.083 933.361 168.648 Q 931.687 172.213 928.649 174.197 Q 925.611 176.181 921.643 176.181 Q 918.109 176.181 915.474 174.631 Q 912.839 173.081 911.475 170.229 L 911.475 173.577 Q 911.475 174.693 910.824 175.375 Q 910.173 176.057 908.995 176.057 Q 907.817 176.057 907.135 175.375 Q 906.453 174.693 906.453 173.577 L 906.453 134.145 Q 906.453 133.091 907.135 132.409 Q 907.817 131.727 908.995 131.727 Q 910.173 131.727 910.824 132.378 Q 911.475 133.029 911.475 134.145 L 911.475 150.761 Q 912.839 147.909 915.474 146.359 Q 918.109 144.809 921.643 144.809 Z M 920.651 172.027 Q 925.053 172.027 927.471 168.958 Q 929.889 165.889 929.889 160.371 Q 929.889 154.977 927.471 152.001 Q 925.053 149.025 920.651 149.025 Q 916.249 149.025 913.862 152.001 Q 911.475 154.977 911.475 160.495 Q 911.475 166.013 913.862 169.02 Q 916.249 172.027 920.651 172.027 Z M 957.481 144.933 Q 960.085 144.747 960.085 147.041 Q 960.085 148.033 959.527 148.622 Q 958.969 149.211 957.605 149.335 L 955.745 149.521 Q 951.591 149.893 949.576 152.466 Q 947.561 155.039 947.561 158.511 L 947.561 173.577 Q 947.561 174.817 946.879 175.437 Q 946.197 176.057 945.081 176.057 Q 943.965 176.057 943.252 175.406 Q 942.539 174.755 942.539 173.577 L 942.539 147.413 Q 942.539 146.235 943.283 145.584 Q 944.027 144.933 945.081 144.933 Q 946.073 144.933 946.755 145.584 Q 947.437 146.235 947.437 147.351 L 947.437 150.823 Q 948.739 148.095 951.126 146.669 Q 953.513 145.243 956.613 144.995 L 957.481 144.933 Z M 976.513 144.809 Q 987.859 144.809 987.859 156.713 L 987.859 173.577 Q 987.859 174.693 987.208 175.375 Q 986.557 176.057 985.441 176.057 Q 984.325 176.057 983.643 175.375 Q 982.961 174.693 982.961 173.577 L 982.961 170.601 Q 981.783 173.267 979.365 174.724 Q 976.947 176.181 973.785 176.181 Q 970.871 176.181 968.422 175.003 Q 965.973 173.825 964.547 171.717 Q 963.121 169.609 963.121 167.067 Q 963.121 163.657 964.857 161.766 Q 966.593 159.875 970.561 159.038 Q 974.529 158.201 981.597 158.201 L 982.961 158.201 L 982.961 156.155 Q 982.961 152.435 981.442 150.699 Q 979.923 148.963 976.513 148.963 Q 972.297 148.963 967.957 151.257 Q 966.283 152.311 965.601 152.311 Q 964.857 152.311 964.361 151.753 Q 963.865 151.195 963.865 150.327 Q 963.865 149.459 964.392 148.808 Q 964.919 148.157 966.097 147.475 Q 968.267 146.235 971.026 145.522 Q 973.785 144.809 976.513 144.809 Z M 974.467 172.213 Q 978.187 172.213 980.574 169.702 Q 982.961 167.191 982.961 163.223 L 982.961 161.425 L 981.845 161.425 Q 976.389 161.425 973.537 161.89 Q 970.685 162.355 969.476 163.44 Q 968.267 164.525 968.267 166.633 Q 968.267 169.051 970.034 170.632 Q 971.801 172.213 974.467 172.213 Z M 1011.972 144.933 Q 1014.576 144.747 1014.576 147.041 Q 1014.576 148.033 1014.018 148.622 Q 1013.46 149.211 1012.096 149.335 L 1010.236 149.521 Q 1006.082 149.893 1004.067 152.466 Q 1002.052 155.039 1002.052 158.511 L 1002.052 173.577 Q 1002.052 174.817 1001.37 175.437 Q 1000.688 176.057 999.572 176.057 Q 998.456 176.057 997.743 175.406 Q 997.03 174.755 997.03 173.577 L 997.03 147.413 Q 997.03 146.235 997.774 145.584 Q 998.518 144.933 999.572 144.933 Q 1000.564 144.933 1001.246 145.584 Q 1001.928 146.235 1001.928 147.351 L 1001.928 150.823 Q 1003.23 148.095 1005.617 146.669 Q 1008.004 145.243 1011.104 144.995 L 1011.972 144.933 Z M 1042.537 146.483 Q 1043.219 144.995 1044.707 144.995 Q 1045.637 144.995 1046.381 145.615 Q 1047.125 146.235 1047.125 147.165 Q 1047.125 147.723 1046.877 148.157 L 1029.455 185.729 Q 1029.145 186.411 1028.556 186.783 Q 1027.967 187.155 1027.347 187.155 Q 1026.417 187.155 1025.704 186.566 Q 1024.991 185.977 1024.991 185.047 Q 1024.991 184.551 1025.239 184.055 L 1029.579 174.693 L 1017.303 148.157 Q 1017.055 147.723 1017.055 147.227 Q 1017.055 146.297 1017.892 145.615 Q 1018.729 144.933 1019.721 144.933 Q 1020.341 144.933 1020.93 145.305 Q 1021.519 145.677 1021.829 146.359 L 1032.183 169.609 L 1042.537 146.483 Z" style="fill: rgb(163, 163, 163);"/>
</svg>