<?xml version="1.0" encoding="utf-8"?>
<svg viewBox="0 0 1050 190" xmlns="http://www.w3.org/2000/svg">
  <defs>
    <radialGradient id="gradient-1" gradientUnits="userSpaceOnUse" cx="152.286" cy="126.898" r="330" gradientTransform="matrix(0.638467, -1.091841, 1.097297, 0.641658, 52.727183, 218.434182)">
      <stop offset="0" style="stop-color: rgb(0, 170, 237);"/>
      <stop offset="1" style="stop-color: rgb(0, 145, 202);"/>
    </radialGradient>
    <linearGradient id="gradient-0" gradientUnits="userSpaceOnUse" x1="330" y1="0" x2="330" y2="660" gradientTransform="matrix(0.980745, -0.195296, 0.195753, 0.983035, -58.663244, 70.697931)">
      <stop offset="0" style="stop-color: rgb(152, 226, 255);"/>
      <stop offset="1" style="stop-color: rgb(78, 193, 239);"/>
    </linearGradient>
  </defs>
  <g transform="matrix(0.27651503682136536, 0, 0, 0.27651503682136536, 4, 3.750037908554077)">
    <g>
      <circle style="fill: url(#gradient-1); stroke: url(#gradient-0); stroke-width: 20px;" cx="330" cy="330" r="330"/>
      <g transform="matrix(1, 0, 0, 1, 76.243515, 77.183487)">
        <circle style="fill: rgb(255, 255, 255); stroke: rgb(152, 226, 255); stroke-width: 20px;" cx="254.358" cy="253.337" r="75"/>
        <circle style="fill: rgb(212, 243, 255); stroke: rgb(99, 211, 255); stroke-width: 20px;" cx="215.084" cy="54.739" r="57.5"/>
        <circle style="stroke: rgb(78, 193, 239); fill: rgb(179, 233, 255); stroke-width: 20px;" cx="63.26" cy="186.66" r="42.5"/>
        <circle style="stroke: rgb(78, 193, 239); fill: rgb(179, 233, 255); stroke-width: 20px;" cx="405.584" cy="120.172" r="42.5"/>
        <circle style="stroke: rgb(78, 193, 239); fill: rgb(179, 233, 255); stroke-width: 20px;" cx="444.253" cy="318.582" r="42.5"/>
        <circle style="stroke: rgb(78, 193, 239); fill: rgb(179, 233, 255); stroke-width: 20px;" cx="101.614" cy="385.13" r="42.5"/>
        <circle style="fill: rgb(212, 243, 255); stroke: rgb(99, 211, 255); stroke-width: 20px;" cx="291.529" cy="450.894" r="57.5"/>
      </g>
    </g>
  </g>
  <path d="M 267.066 103.245 Q 268.43 103.245 269.422 104.361 Q 270.414 105.477 270.414 107.213 Q 270.414 110.313 266.074 112.917 Q 261.61 115.521 256.65 116.823 Q 251.69 118.125 246.978 118.125 Q 232.966 118.125 224.844 109.817 Q 216.722 101.509 216.722 86.877 Q 216.722 77.577 220.318 70.447 Q 223.914 63.317 230.424 59.349 Q 236.934 55.381 245.242 55.381 Q 257.022 55.381 263.966 63.069 Q 270.91 70.757 270.91 83.901 Q 270.91 86.381 269.918 87.497 Q 268.926 88.613 266.694 88.613 L 226.766 88.613 Q 227.882 109.941 246.978 109.941 Q 251.814 109.941 255.286 108.639 Q 258.758 107.337 262.726 105.105 Q 265.95 103.245 267.066 103.245 Z M 245.366 63.193 Q 237.43 63.193 232.656 68.153 Q 227.882 73.113 227.014 82.165 L 262.106 82.165 Q 261.858 72.989 257.518 68.091 Q 253.178 63.193 245.366 63.193 Z M 310.337 55.381 Q 333.029 55.381 333.029 79.189 L 333.029 112.917 Q 333.029 115.149 331.727 116.513 Q 330.425 117.877 328.193 117.877 Q 325.961 117.877 324.597 116.513 Q 323.233 115.149 323.233 112.917 L 323.233 106.965 Q 320.877 112.297 316.041 115.211 Q 311.205 118.125 304.881 118.125 Q 299.053 118.125 294.155 115.769 Q 289.257 113.413 286.405 109.197 Q 283.553 104.981 283.553 99.897 Q 283.553 93.077 287.025 89.295 Q 290.497 85.513 298.433 83.839 Q 306.369 82.165 320.505 82.165 L 323.233 82.165 L 323.233 78.073 Q 323.233 70.633 320.195 67.161 Q 317.157 63.689 310.337 63.689 Q 301.905 63.689 293.225 68.277 Q 289.877 70.385 288.513 70.385 Q 287.025 70.385 286.033 69.269 Q 285.041 68.153 285.041 66.417 Q 285.041 64.681 286.095 63.379 Q 287.149 62.077 289.505 60.713 Q 293.845 58.233 299.363 56.807 Q 304.881 55.381 310.337 55.381 Z M 306.245 110.189 Q 313.685 110.189 318.459 105.167 Q 323.233 100.145 323.233 92.209 L 323.233 88.613 L 321.001 88.613 Q 310.089 88.613 304.385 89.543 Q 298.681 90.473 296.263 92.643 Q 293.845 94.813 293.845 99.029 Q 293.845 103.865 297.379 107.027 Q 300.913 110.189 306.245 110.189 Z M 371.716 118.125 Q 366.012 118.125 360.866 116.761 Q 355.72 115.397 351.752 112.917 Q 349.52 111.429 348.59 110.127 Q 347.66 108.825 347.66 106.965 Q 347.66 105.353 348.59 104.299 Q 349.52 103.245 351.008 103.245 Q 352.496 103.245 355.348 105.105 Q 359.068 107.337 362.726 108.639 Q 366.384 109.941 371.84 109.941 Q 378.536 109.941 382.256 107.585 Q 385.976 105.229 385.976 100.765 Q 385.976 98.037 384.612 96.363 Q 383.248 94.689 379.9 93.387 Q 376.552 92.085 370.104 90.721 Q 359.192 88.365 354.48 84.397 Q 349.768 80.429 349.768 73.609 Q 349.768 68.277 352.744 64.185 Q 355.72 60.093 360.99 57.737 Q 366.26 55.381 372.956 55.381 Q 377.792 55.381 382.318 56.683 Q 386.844 57.985 390.316 60.341 Q 394.532 63.317 394.532 66.541 Q 394.532 68.153 393.54 69.269 Q 392.548 70.385 391.184 70.385 Q 389.696 70.385 386.72 68.277 Q 383.248 66.045 380.148 64.805 Q 377.048 63.565 372.46 63.565 Q 366.632 63.565 363.098 66.169 Q 359.564 68.773 359.564 73.113 Q 359.564 75.841 360.866 77.515 Q 362.168 79.189 365.206 80.491 Q 368.244 81.793 373.948 83.033 Q 382.38 84.893 387.03 87.125 Q 391.68 89.357 393.664 92.581 Q 395.648 95.805 395.648 100.765 Q 395.648 108.577 389.076 113.351 Q 382.504 118.125 371.716 118.125 Z M 453.31 58.729 Q 454.674 55.753 457.65 55.753 Q 459.51 55.753 460.998 56.993 Q 462.486 58.233 462.486 60.093 Q 462.486 61.209 461.99 62.077 L 427.146 137.221 Q 426.526 138.585 425.348 139.329 Q 424.17 140.073 422.93 140.073 Q 421.07 140.073 419.644 138.895 Q 418.218 137.717 418.218 135.857 Q 418.218 134.865 418.714 133.873 L 427.394 115.149 L 402.842 62.077 Q 402.346 61.209 402.346 60.217 Q 402.346 58.357 404.02 56.993 Q 405.694 55.629 407.678 55.629 Q 408.918 55.629 410.096 56.373 Q 411.274 57.117 411.894 58.481 L 432.602 104.981 L 453.31 58.729 Z" style="fill: rgb(163, 163, 163);" transform="matrix(1, 0, 0, 1, 0, 3.552713678800501e-15)"/>
  <path d="M 522.881 29.217 Q 526.353 29.217 528.585 31.201 Q 530.817 33.185 530.817 36.409 L 530.817 110.561 Q 530.817 113.909 528.709 115.893 Q 526.601 117.877 523.129 117.877 Q 519.657 117.877 517.549 115.893 Q 515.441 113.909 515.441 110.561 L 515.441 107.461 Q 512.713 112.545 507.567 115.397 Q 502.421 118.249 495.849 118.249 Q 488.037 118.249 481.899 114.281 Q 475.761 110.313 472.351 103.059 Q 468.941 95.805 468.941 86.381 Q 468.941 76.957 472.351 69.889 Q 475.761 62.821 481.837 58.977 Q 487.913 55.133 495.849 55.133 Q 502.421 55.133 507.505 57.861 Q 512.589 60.589 515.317 65.549 L 515.317 36.161 Q 515.317 33.061 517.363 31.139 Q 519.409 29.217 522.881 29.217 Z M 499.941 106.221 Q 507.381 106.221 511.411 101.137 Q 515.441 96.053 515.441 86.629 Q 515.441 77.205 511.411 72.183 Q 507.381 67.161 500.065 67.161 Q 492.625 67.161 488.533 72.121 Q 484.441 77.081 484.441 86.381 Q 484.441 95.805 488.533 101.013 Q 492.625 106.221 499.941 106.221 Z M 554.493 118.001 Q 551.145 118.001 548.975 116.079 Q 546.805 114.157 546.805 110.561 L 546.805 62.697 Q 546.805 59.101 548.975 57.241 Q 551.145 55.381 554.493 55.381 Q 557.841 55.381 560.073 57.241 Q 562.305 59.101 562.305 62.697 L 562.305 110.561 Q 562.305 114.157 560.073 116.079 Q 557.841 118.001 554.493 118.001 Z M 554.493 44.345 Q 550.277 44.345 547.797 42.051 Q 545.317 39.757 545.317 36.037 Q 545.317 32.317 547.797 30.085 Q 550.277 27.853 554.493 27.853 Q 558.585 27.853 561.127 30.085 Q 563.669 32.317 563.669 36.037 Q 563.669 39.757 561.189 42.051 Q 558.709 44.345 554.493 44.345 Z M 608.935 41.369 Q 603.231 41.741 600.627 44.841 Q 598.023 47.941 598.023 53.769 L 598.023 56.621 L 608.563 56.621 Q 615.507 56.621 615.507 62.449 Q 615.507 68.277 608.563 68.277 L 598.023 68.277 L 598.023 110.561 Q 598.023 114.157 595.853 116.017 Q 593.683 117.877 590.335 117.877 Q 586.987 117.877 584.755 116.017 Q 582.523 114.157 582.523 110.561 L 582.523 68.277 L 576.323 68.277 Q 569.379 68.277 569.379 62.449 Q 569.379 56.621 576.323 56.621 L 582.523 56.621 L 582.523 55.753 Q 582.523 44.097 588.661 37.463 Q 594.799 30.829 605.959 29.961 L 609.183 29.713 Q 614.143 29.341 616.189 30.767 Q 618.235 32.193 618.235 35.169 Q 618.235 40.501 612.159 41.121 L 608.935 41.369 Z M 652.209 41.369 Q 646.505 41.741 643.901 44.841 Q 641.297 47.941 641.297 53.769 L 641.297 56.621 L 651.837 56.621 Q 658.781 56.621 658.781 62.449 Q 658.781 68.277 651.837 68.277 L 641.297 68.277 L 641.297 110.561 Q 641.297 114.157 639.127 116.017 Q 636.957 117.877 633.609 117.877 Q 630.261 117.877 628.029 116.017 Q 625.797 114.157 625.797 110.561 L 625.797 68.277 L 619.597 68.277 Q 612.653 68.277 612.653 62.449 Q 612.653 56.621 619.597 56.621 L 625.797 56.621 L 625.797 55.753 Q 625.797 44.097 631.935 37.463 Q 638.073 30.829 649.233 29.961 L 652.457 29.713 Q 657.417 29.341 659.463 30.767 Q 661.509 32.193 661.509 35.169 Q 661.509 40.501 655.433 41.121 L 652.209 41.369 Z M 699.823 55.381 Q 703.047 55.133 704.907 56.745 Q 706.767 58.357 706.767 61.581 Q 706.767 64.929 705.155 66.541 Q 703.543 68.153 699.327 68.649 L 695.607 69.021 Q 688.291 69.765 684.881 73.981 Q 681.471 78.197 681.471 84.521 L 681.471 110.561 Q 681.471 114.157 679.239 116.079 Q 677.007 118.001 673.659 118.001 Q 670.311 118.001 668.141 116.079 Q 665.971 114.157 665.971 110.561 L 665.971 62.573 Q 665.971 59.101 668.141 57.241 Q 670.311 55.381 673.535 55.381 Q 676.759 55.381 678.743 57.179 Q 680.727 58.977 680.727 62.325 L 680.727 67.285 Q 683.083 61.829 687.733 58.853 Q 692.383 55.877 698.087 55.505 L 699.823 55.381 Z M 739.501 55.133 Q 752.149 55.133 758.287 61.395 Q 764.425 67.657 764.425 80.429 L 764.425 110.685 Q 764.425 114.033 762.441 115.955 Q 760.457 117.877 756.985 117.877 Q 753.761 117.877 751.715 115.893 Q 749.669 113.909 749.669 110.685 L 749.669 107.957 Q 747.561 112.793 743.035 115.521 Q 738.509 118.249 732.557 118.249 Q 726.481 118.249 721.521 115.769 Q 716.561 113.289 713.709 108.949 Q 710.857 104.609 710.857 99.277 Q 710.857 92.581 714.267 88.737 Q 717.677 84.893 725.365 83.157 Q 733.053 81.421 746.569 81.421 L 749.669 81.421 L 749.669 78.569 Q 749.669 72.493 747.065 69.703 Q 744.461 66.913 738.633 66.913 Q 735.037 66.913 731.317 67.967 Q 727.597 69.021 722.513 71.005 Q 719.289 72.617 717.801 72.617 Q 715.569 72.617 714.143 71.005 Q 712.717 69.393 712.717 66.789 Q 712.717 64.681 713.771 63.131 Q 714.825 61.581 717.305 60.217 Q 721.645 57.861 727.659 56.497 Q 733.673 55.133 739.501 55.133 Z M 735.657 107.089 Q 741.857 107.089 745.763 102.935 Q 749.669 98.781 749.669 92.209 L 749.669 89.605 L 747.437 89.605 Q 739.129 89.605 734.541 90.349 Q 729.953 91.093 727.969 92.953 Q 725.985 94.813 725.985 98.037 Q 725.985 102.005 728.775 104.547 Q 731.565 107.089 735.657 107.089 Z M 807.078 118.249 Q 798.026 118.249 791.144 114.405 Q 784.262 110.561 780.542 103.493 Q 776.822 96.425 776.822 87.001 Q 776.822 77.577 780.728 70.323 Q 784.634 63.069 791.702 59.101 Q 798.77 55.133 807.946 55.133 Q 812.782 55.133 817.68 56.497 Q 822.578 57.861 826.298 60.217 Q 830.266 62.821 830.266 66.789 Q 830.266 69.517 828.964 71.191 Q 827.662 72.865 825.554 72.865 Q 824.19 72.865 822.702 72.245 Q 821.214 71.625 819.726 70.757 Q 816.998 69.145 814.518 68.215 Q 812.038 67.285 808.814 67.285 Q 801.126 67.285 796.972 72.307 Q 792.818 77.329 792.818 86.753 Q 792.818 96.053 796.972 101.075 Q 801.126 106.097 808.814 106.097 Q 811.914 106.097 814.332 105.167 Q 816.75 104.237 819.726 102.625 Q 821.586 101.509 822.95 100.951 Q 824.314 100.393 825.678 100.393 Q 827.662 100.393 829.026 102.129 Q 830.39 103.865 830.39 106.469 Q 830.39 108.577 829.46 110.127 Q 828.53 111.677 826.422 112.917 Q 822.578 115.397 817.494 116.823 Q 812.41 118.249 807.078 118.249 Z M 872.549 106.469 Q 878.749 106.841 878.749 112.049 Q 878.749 115.025 876.331 116.575 Q 873.913 118.125 869.449 117.877 L 866.101 117.629 Q 845.269 116.141 845.269 95.309 L 845.269 68.277 L 839.069 68.277 Q 835.721 68.277 833.923 66.789 Q 832.125 65.301 832.125 62.449 Q 832.125 59.597 833.923 58.109 Q 835.721 56.621 839.069 56.621 L 845.269 56.621 L 845.269 45.213 Q 845.269 41.865 847.377 39.881 Q 849.485 37.897 853.081 37.897 Q 856.553 37.897 858.661 39.881 Q 860.769 41.865 860.769 45.213 L 860.769 56.621 L 871.309 56.621 Q 874.657 56.621 876.455 58.109 Q 878.253 59.597 878.253 62.449 Q 878.253 65.301 876.455 66.789 Q 874.657 68.277 871.309 68.277 L 860.769 68.277 L 860.769 96.425 Q 860.769 105.601 869.201 106.221 L 872.549 106.469 Z M 894.499 118.001 Q 891.151 118.001 888.981 116.079 Q 886.811 114.157 886.811 110.561 L 886.811 62.697 Q 886.811 59.101 888.981 57.241 Q 891.151 55.381 894.499 55.381 Q 897.847 55.381 900.079 57.241 Q 902.311 59.101 902.311 62.697 L 902.311 110.561 Q 902.311 114.157 900.079 116.079 Q 897.847 118.001 894.499 118.001 Z M 894.499 44.345 Q 890.283 44.345 887.803 42.051 Q 885.323 39.757 885.323 36.037 Q 885.323 32.317 887.803 30.085 Q 890.283 27.853 894.499 27.853 Q 898.591 27.853 901.133 30.085 Q 903.675 32.317 903.675 36.037 Q 903.675 39.757 901.195 42.051 Q 898.715 44.345 894.499 44.345 Z M 945.958 118.249 Q 936.658 118.249 929.652 114.405 Q 922.646 110.561 918.802 103.369 Q 914.958 96.177 914.958 86.629 Q 914.958 77.081 918.802 69.951 Q 922.646 62.821 929.652 58.977 Q 936.658 55.133 945.958 55.133 Q 955.258 55.133 962.264 58.977 Q 969.27 62.821 973.052 69.951 Q 976.834 77.081 976.834 86.629 Q 976.834 96.177 973.052 103.369 Q 969.27 110.561 962.264 114.405 Q 955.258 118.249 945.958 118.249 Z M 945.834 106.221 Q 953.398 106.221 957.366 101.261 Q 961.334 96.301 961.334 86.629 Q 961.334 77.081 957.366 72.059 Q 953.398 67.037 945.958 67.037 Q 938.518 67.037 934.488 72.059 Q 930.458 77.081 930.458 86.629 Q 930.458 96.301 934.426 101.261 Q 938.394 106.221 945.834 106.221 Z M 1024.823 55.133 Q 1035.735 55.133 1041.067 61.333 Q 1046.399 67.533 1046.399 80.057 L 1046.399 110.561 Q 1046.399 114.033 1044.353 116.017 Q 1042.307 118.001 1038.711 118.001 Q 1035.115 118.001 1033.007 116.017 Q 1030.899 114.033 1030.899 110.561 L 1030.899 80.925 Q 1030.899 73.857 1028.233 70.633 Q 1025.567 67.409 1019.863 67.409 Q 1013.167 67.409 1009.137 71.625 Q 1005.107 75.841 1005.107 82.909 L 1005.107 110.561 Q 1005.107 114.033 1002.999 116.017 Q 1000.891 118.001 997.295 118.001 Q 993.699 118.001 991.653 116.017 Q 989.607 114.033 989.607 110.561 L 989.607 62.573 Q 989.607 59.349 991.715 57.365 Q 993.823 55.381 997.419 55.381 Q 1000.643 55.381 1002.689 57.303 Q 1004.735 59.225 1004.735 62.325 L 1004.735 65.673 Q 1007.835 60.589 1013.043 57.861 Q 1018.251 55.133 1024.823 55.133 Z" style="fill: rgb(163, 163, 163);" transform="matrix(1, 0, 0, 1, 0, 3.552713678800501e-15)"/>
  <path d="M 877.726 176.057 Q 876.61 176.057 875.897 175.406 Q 875.184 174.755 875.184 173.577 L 875.184 134.207 Q 875.184 133.029 875.897 132.378 Q 876.61 131.727 877.726 131.727 Q 878.78 131.727 879.493 132.378 Q 880.206 133.029 880.206 134.207 L 880.206 173.577 Q 880.206 174.755 879.493 175.406 Q 878.78 176.057 877.726 176.057 Z M 892.105 176.057 Q 890.989 176.057 890.276 175.406 Q 889.563 174.755 889.563 173.577 L 889.563 147.413 Q 889.563 146.235 890.276 145.584 Q 890.989 144.933 892.105 144.933 Q 893.221 144.933 893.903 145.584 Q 894.585 146.235 894.585 147.413 L 894.585 173.577 Q 894.585 174.817 893.903 175.437 Q 893.221 176.057 892.105 176.057 Z M 892.105 138.423 Q 890.617 138.423 889.687 137.555 Q 888.757 136.687 888.757 135.261 Q 888.757 133.897 889.687 133.029 Q 890.617 132.161 892.105 132.161 Q 893.593 132.161 894.523 133.029 Q 895.453 133.897 895.453 135.261 Q 895.453 136.687 894.523 137.555 Q 893.593 138.423 892.105 138.423 Z M 919.139 144.809 Q 923.107 144.809 926.145 146.731 Q 929.183 148.653 930.857 152.187 Q 932.531 155.721 932.531 160.371 Q 932.531 165.083 930.857 168.648 Q 929.183 172.213 926.145 174.197 Q 923.107 176.181 919.139 176.181 Q 915.605 176.181 912.97 174.631 Q 910.335 173.081 908.971 170.229 L 908.971 173.577 Q 908.971 174.693 908.32 175.375 Q 907.669 176.057 906.491 176.057 Q 905.313 176.057 904.631 175.375 Q 903.949 174.693 903.949 173.577 L 903.949 134.145 Q 903.949 133.091 904.631 132.409 Q 905.313 131.727 906.491 131.727 Q 907.669 131.727 908.32 132.378 Q 908.971 133.029 908.971 134.145 L 908.971 150.761 Q 910.335 147.909 912.97 146.359 Q 915.605 144.809 919.139 144.809 Z M 918.147 172.027 Q 922.549 172.027 924.967 168.958 Q 927.385 165.889 927.385 160.371 Q 927.385 154.977 924.967 152.001 Q 922.549 149.025 918.147 149.025 Q 913.745 149.025 911.358 152.001 Q 908.971 154.977 908.971 160.495 Q 908.971 166.013 911.358 169.02 Q 913.745 172.027 918.147 172.027 Z M 954.976 144.933 Q 957.58 144.747 957.58 147.041 Q 957.58 148.033 957.022 148.622 Q 956.464 149.211 955.1 149.335 L 953.24 149.521 Q 949.086 149.893 947.071 152.466 Q 945.056 155.039 945.056 158.511 L 945.056 173.577 Q 945.056 174.817 944.374 175.437 Q 943.692 176.057 942.576 176.057 Q 941.46 176.057 940.747 175.406 Q 940.034 174.755 940.034 173.577 L 940.034 147.413 Q 940.034 146.235 940.778 145.584 Q 941.522 144.933 942.576 144.933 Q 943.568 144.933 944.25 145.584 Q 944.932 146.235 944.932 147.351 L 944.932 150.823 Q 946.234 148.095 948.621 146.669 Q 951.008 145.243 954.108 144.995 L 954.976 144.933 Z M 974.006 144.809 Q 985.352 144.809 985.352 156.713 L 985.352 173.577 Q 985.352 174.693 984.701 175.375 Q 984.05 176.057 982.934 176.057 Q 981.818 176.057 981.136 175.375 Q 980.454 174.693 980.454 173.577 L 980.454 170.601 Q 979.276 173.267 976.858 174.724 Q 974.44 176.181 971.278 176.181 Q 968.364 176.181 965.915 175.003 Q 963.466 173.825 962.04 171.717 Q 960.614 169.609 960.614 167.067 Q 960.614 163.657 962.35 161.766 Q 964.086 159.875 968.054 159.038 Q 972.022 158.201 979.09 158.201 L 980.454 158.201 L 980.454 156.155 Q 980.454 152.435 978.935 150.699 Q 977.416 148.963 974.006 148.963 Q 969.79 148.963 965.45 151.257 Q 963.776 152.311 963.094 152.311 Q 962.35 152.311 961.854 151.753 Q 961.358 151.195 961.358 150.327 Q 961.358 149.459 961.885 148.808 Q 962.412 148.157 963.59 147.475 Q 965.76 146.235 968.519 145.522 Q 971.278 144.809 974.006 144.809 Z M 971.96 172.213 Q 975.68 172.213 978.067 169.702 Q 980.454 167.191 980.454 163.223 L 980.454 161.425 L 979.338 161.425 Q 973.882 161.425 971.03 161.89 Q 968.178 162.355 966.969 163.44 Q 965.76 164.525 965.76 166.633 Q 965.76 169.051 967.527 170.632 Q 969.294 172.213 971.96 172.213 Z M 1009.473 144.933 Q 1012.077 144.747 1012.077 147.041 Q 1012.077 148.033 1011.519 148.622 Q 1010.961 149.211 1009.597 149.335 L 1007.737 149.521 Q 1003.583 149.893 1001.568 152.466 Q 999.553 155.039 999.553 158.511 L 999.553 173.577 Q 999.553 174.817 998.871 175.437 Q 998.189 176.057 997.073 176.057 Q 995.957 176.057 995.244 175.406 Q 994.531 174.755 994.531 173.577 L 994.531 147.413 Q 994.531 146.235 995.275 145.584 Q 996.019 144.933 997.073 144.933 Q 998.065 144.933 998.747 145.584 Q 999.429 146.235 999.429 147.351 L 999.429 150.823 Q 1000.731 148.095 1003.118 146.669 Q 1005.505 145.243 1008.605 144.995 L 1009.473 144.933 Z M 1040.034 146.483 Q 1040.716 144.995 1042.204 144.995 Q 1043.134 144.995 1043.878 145.615 Q 1044.622 146.235 1044.622 147.165 Q 1044.622 147.723 1044.374 148.157 L 1026.952 185.729 Q 1026.642 186.411 1026.053 186.783 Q 1025.464 187.155 1024.844 187.155 Q 1023.914 187.155 1023.201 186.566 Q 1022.488 185.977 1022.488 185.047 Q 1022.488 184.551 1022.736 184.055 L 1027.076 174.693 L 1014.8 148.157 Q 1014.552 147.723 1014.552 147.227 Q 1014.552 146.297 1015.389 145.615 Q 1016.226 144.933 1017.218 144.933 Q 1017.838 144.933 1018.427 145.305 Q 1019.016 145.677 1019.326 146.359 L 1029.68 169.609 L 1040.034 146.483 Z" style="fill: rgb(163, 163, 163);" transform="matrix(1, 0, 0, 1, 0, 3.552713678800501e-15)"/>
</svg>